<svg xmlns="http://www.w3.org/2000/svg" xmlns:xlink="http://www.w3.org/1999/xlink" width="128" zoomAndPan="magnify" viewBox="0 0 96 95.999999" height="128" preserveAspectRatio="xMidYMid meet" version="1.0"><defs><clipPath id="630b9d519e"><path d="M 0 1 L 88 1 L 88 95.234375 L 0 95.234375 Z M 0 1 " clip-rule="nonzero"/></clipPath></defs><path fill="#6c63ff" d="M 33.308594 33.800781 C 32.667969 34.417969 32.351562 35.167969 32.363281 36.058594 L 32.363281 43.046875 L 62.933594 43.046875 L 62.933594 53.234375 L 32.363281 53.234375 L 32.363281 60.222656 C 32.367188 60.644531 32.449219 61.050781 32.613281 61.441406 C 32.777344 61.832031 33.011719 62.179688 33.308594 62.476562 C 33.609375 62.777344 33.953125 63.007812 34.34375 63.171875 C 34.734375 63.335938 35.140625 63.421875 35.5625 63.425781 L 92 63.425781 C 92.84375 60.964844 93.480469 58.453125 93.90625 55.886719 C 94.335938 53.324219 94.550781 50.742188 94.550781 48.140625 C 94.550781 45.539062 94.335938 42.957031 93.90625 40.390625 C 93.480469 37.828125 92.84375 35.3125 92 32.855469 L 35.5625 32.855469 C 34.675781 32.84375 33.925781 33.160156 33.308594 33.800781 Z M 33.308594 33.800781 " fill-opacity="1" fill-rule="nonzero"/><g clip-path="url(#630b9d519e)"><path fill="#6c63ff" d="M 32.363281 73.613281 C 30.984375 73.621094 29.660156 73.351562 28.394531 72.808594 C 27.175781 72.289062 26.097656 71.5625 25.160156 70.625 C 24.222656 69.6875 23.496094 68.609375 22.980469 67.390625 C 22.4375 66.125 22.167969 64.804688 22.179688 63.425781 L 22.179688 32.855469 C 22.167969 31.476562 22.4375 30.15625 22.980469 28.886719 C 23.496094 27.667969 24.222656 26.589844 25.160156 25.652344 C 26.097656 24.71875 27.175781 23.988281 28.394531 23.472656 C 29.660156 22.929688 30.984375 22.664062 32.363281 22.671875 L 87.03125 22.671875 C 85.976562 21.035156 84.820312 19.46875 83.5625 17.972656 C 82.308594 16.480469 80.96875 15.066406 79.539062 13.742188 C 78.109375 12.414062 76.601562 11.183594 75.015625 10.042969 C 73.433594 8.90625 71.785156 7.871094 70.070312 6.9375 C 68.355469 6.003906 66.59375 5.183594 64.777344 4.472656 C 62.960938 3.757812 61.105469 3.164062 59.214844 2.683594 C 57.324219 2.203125 55.410156 1.839844 53.476562 1.597656 C 51.539062 1.355469 49.597656 1.234375 47.648438 1.238281 C 21.742188 1.238281 0.742188 22.238281 0.742188 48.140625 C 0.742188 74.042969 21.742188 95.042969 47.648438 95.042969 C 49.597656 95.042969 51.539062 94.921875 53.476562 94.683594 C 55.410156 94.441406 57.324219 94.078125 59.214844 93.597656 C 61.105469 93.117188 62.957031 92.523438 64.773438 91.8125 C 66.589844 91.097656 68.355469 90.277344 70.070312 89.34375 C 71.78125 88.414062 73.429688 87.378906 75.015625 86.238281 C 76.601562 85.101562 78.105469 83.867188 79.539062 82.542969 C 80.96875 81.214844 82.308594 79.804688 83.5625 78.3125 C 84.816406 76.820312 85.972656 75.253906 87.03125 73.613281 Z M 32.363281 73.613281 " fill-opacity="1" fill-rule="nonzero"/></g></svg>