<svg xmlns="http://www.w3.org/2000/svg" xmlns:xlink="http://www.w3.org/1999/xlink" width="64" zoomAndPan="magnify" viewBox="0 0 48 48" height="64" preserveAspectRatio="xMidYMid meet" version="1.0"><defs><clipPath id="ddcd7b98f7"><path d="M 16 15 L 46.777344 15 L 46.777344 31 L 16 31 Z M 16 15 " clip-rule="nonzero"/></clipPath><clipPath id="85d23b860e"><path d="M 0.488281 0.0664062 L 43 0.0664062 L 43 46 L 0.488281 46 Z M 0.488281 0.0664062 " clip-rule="nonzero"/></clipPath></defs><g clip-path="url(#ddcd7b98f7)"><path fill="#6c63ff" d="M 16.671875 16.125 C 16.359375 16.425781 16.203125 16.789062 16.207031 17.222656 L 16.207031 20.621094 L 31.078125 20.621094 L 31.078125 25.578125 L 16.207031 25.578125 L 16.207031 28.976562 C 16.210938 29.183594 16.253906 29.378906 16.332031 29.570312 C 16.410156 29.761719 16.523438 29.925781 16.671875 30.074219 C 16.816406 30.21875 16.984375 30.332031 17.171875 30.410156 C 17.363281 30.492188 17.5625 30.53125 17.765625 30.535156 L 45.214844 30.535156 C 46.042969 28.125 46.457031 25.648438 46.457031 23.101562 C 46.457031 20.554688 46.042969 18.074219 45.214844 15.664062 L 17.765625 15.664062 C 17.335938 15.660156 16.96875 15.816406 16.671875 16.125 Z M 16.671875 16.125 " fill-opacity="1" fill-rule="nonzero"/></g><g clip-path="url(#85d23b860e)"><path fill="#6c63ff" d="M 16.207031 35.488281 C 15.539062 35.492188 14.894531 35.363281 14.28125 35.097656 C 13.046875 34.574219 12.167969 33.695312 11.644531 32.464844 C 11.382812 31.847656 11.253906 31.203125 11.257812 30.535156 L 11.257812 15.664062 C 11.253906 14.996094 11.382812 14.351562 11.644531 13.738281 C 12.167969 12.503906 13.046875 11.625 14.28125 11.101562 C 14.894531 10.839844 15.539062 10.710938 16.207031 10.714844 L 42.800781 10.714844 C 41.765625 9.113281 40.550781 7.664062 39.15625 6.371094 C 37.757812 5.074219 36.222656 3.972656 34.550781 3.058594 C 32.875 2.148438 31.117188 1.460938 29.269531 0.992188 C 27.425781 0.519531 25.546875 0.285156 23.644531 0.289062 C 11.042969 0.289062 0.832031 10.5 0.832031 23.101562 C 0.832031 35.699219 11.042969 45.910156 23.644531 45.910156 C 25.546875 45.914062 27.421875 45.679688 29.269531 45.210938 C 31.117188 44.742188 32.875 44.050781 34.550781 43.140625 C 36.222656 42.230469 37.757812 41.128906 39.152344 39.832031 C 40.550781 38.539062 41.765625 37.089844 42.800781 35.488281 Z M 16.207031 35.488281 " fill-opacity="1" fill-rule="nonzero"/></g></svg>