<svg xmlns="http://www.w3.org/2000/svg" xmlns:xlink="http://www.w3.org/1999/xlink" width="550" zoomAndPan="magnify" viewBox="0 0 412.5 187.499995" height="250" preserveAspectRatio="xMidYMid meet" version="1.0"><defs><g/><clipPath id="e7dd8a0158"><path d="M 18 17 L 154 17 L 154 164.761719 L 18 164.761719 Z M 18 17 " clip-rule="nonzero"/></clipPath></defs><path fill="#6c63ff" d="M 69.777344 68.878906 C 69.296875 69.339844 68.925781 69.875 68.667969 70.488281 C 68.410156 71.101562 68.285156 71.742188 68.292969 72.40625 L 68.292969 83.335938 L 116.109375 83.335938 L 116.109375 99.273438 L 68.292969 99.273438 L 68.292969 110.203125 C 68.296875 110.53125 68.332031 110.855469 68.398438 111.179688 C 68.464844 111.5 68.5625 111.8125 68.6875 112.113281 C 68.816406 112.414062 68.972656 112.703125 69.152344 112.976562 C 69.335938 113.246094 69.542969 113.5 69.777344 113.730469 C 70.007812 113.964844 70.261719 114.171875 70.53125 114.355469 C 70.804688 114.535156 71.089844 114.691406 71.394531 114.820312 C 71.695312 114.945312 72.007812 115.042969 72.328125 115.109375 C 72.648438 115.175781 72.976562 115.210938 73.300781 115.214844 L 161.578125 115.214844 C 162.898438 111.367188 163.894531 107.4375 164.5625 103.425781 C 165.230469 99.414062 165.566406 95.371094 165.566406 91.304688 C 165.566406 87.238281 165.230469 83.199219 164.5625 79.1875 C 163.894531 75.175781 162.898438 71.246094 161.578125 67.398438 L 73.300781 67.398438 C 72.636719 67.390625 72 67.515625 71.386719 67.773438 C 70.773438 68.03125 70.238281 68.398438 69.777344 68.878906 Z M 69.777344 68.878906 " fill-opacity="1" fill-rule="nonzero"/><g clip-path="url(#e7dd8a0158)"><path fill="#6c63ff" d="M 68.292969 131.152344 C 66.136719 131.164062 64.070312 130.742188 62.089844 129.890625 C 60.183594 129.078125 58.496094 127.941406 57.03125 126.476562 C 55.566406 125.011719 54.429688 123.324219 53.617188 121.417969 C 52.769531 119.4375 52.351562 117.367188 52.367188 115.214844 L 52.367188 67.398438 C 52.351562 65.242188 52.769531 63.175781 53.617188 61.191406 C 54.429688 59.285156 55.566406 57.597656 57.03125 56.132812 C 58.496094 54.667969 60.183594 53.53125 62.089844 52.722656 C 64.070312 51.875 66.140625 51.457031 68.292969 51.46875 L 153.808594 51.46875 C 152.152344 48.90625 150.34375 46.457031 148.382812 44.121094 C 146.421875 41.78125 144.324219 39.574219 142.085938 37.5 C 139.847656 35.425781 137.492188 33.5 135.011719 31.71875 C 132.535156 29.9375 129.957031 28.316406 127.277344 26.859375 C 124.597656 25.398438 121.835938 24.113281 118.996094 23 C 116.152344 21.886719 113.253906 20.953125 110.296875 20.203125 C 107.339844 19.449219 104.347656 18.886719 101.320312 18.507812 C 98.292969 18.128906 95.253906 17.941406 92.203125 17.941406 C 51.683594 17.941406 18.839844 50.789062 18.839844 91.304688 C 18.839844 131.820312 51.683594 164.667969 92.203125 164.667969 C 95.253906 164.671875 98.292969 164.484375 101.320312 164.105469 C 104.347656 163.726562 107.339844 163.164062 110.296875 162.410156 C 113.253906 161.660156 116.152344 160.726562 118.992188 159.613281 C 121.835938 158.5 124.59375 157.214844 127.273438 155.757812 C 129.953125 154.296875 132.535156 152.679688 135.011719 150.898438 C 137.488281 149.117188 139.847656 147.191406 142.085938 145.117188 C 144.320312 143.042969 146.421875 140.835938 148.382812 138.5 C 150.34375 136.164062 152.152344 133.714844 153.808594 131.152344 Z M 68.292969 131.152344 " fill-opacity="1" fill-rule="nonzero"/></g><g fill="#6c63ff" fill-opacity="1"><g transform="translate(189.749343, 113.834613)"><g><path d="M 27.984375 -38.0625 L 38.703125 -38.0625 L 25.46875 0 L 10.296875 0 L -0.796875 -38.0625 L 10.5625 -38.0625 L 18.4375 -9.65625 Z M 27.984375 -38.0625 "/></g></g></g><g fill="#6c63ff" fill-opacity="1"><g transform="translate(236.173154, 113.834613)"><g><path d="M 21.234375 0.53125 C 17.117188 0.570312 13.578125 -0.15625 10.609375 -1.65625 C 7.648438 -3.15625 5.382812 -5.316406 3.8125 -8.140625 C 2.238281 -10.972656 1.453125 -14.367188 1.453125 -18.328125 C 1.453125 -22.410156 2.304688 -25.96875 4.015625 -29 C 5.734375 -32.039062 8.128906 -34.398438 11.203125 -36.078125 C 14.273438 -37.753906 17.867188 -38.59375 21.984375 -38.59375 C 25.734375 -38.59375 29.007812 -37.804688 31.8125 -36.234375 C 34.625 -34.660156 36.804688 -32.472656 38.359375 -29.671875 C 39.910156 -26.867188 40.6875 -23.570312 40.6875 -19.78125 C 40.6875 -15.78125 39.875 -12.257812 38.25 -9.21875 C 36.625 -6.175781 34.34375 -3.796875 31.40625 -2.078125 C 28.476562 -0.367188 25.085938 0.5 21.234375 0.53125 Z M 20.96875 -8.84375 C 23.71875 -8.84375 25.894531 -9.816406 27.5 -11.765625 C 29.101562 -13.710938 29.90625 -16.3125 29.90625 -19.5625 C 29.90625 -22.5 29.144531 -24.84375 27.625 -26.59375 C 26.113281 -28.34375 24.085938 -29.21875 21.546875 -29.21875 C 19.691406 -29.21875 18.066406 -28.757812 16.671875 -27.84375 C 15.273438 -26.9375 14.191406 -25.6875 13.421875 -24.09375 C 12.660156 -22.507812 12.28125 -20.679688 12.28125 -18.609375 C 12.28125 -15.523438 13.046875 -13.125 14.578125 -11.40625 C 16.117188 -9.695312 18.25 -8.84375 20.96875 -8.84375 Z M 20.96875 -8.84375 "/></g></g></g><g fill="#6c63ff" fill-opacity="1"><g transform="translate(288.064742, 113.834613)"><g><path d="M 34.46875 -38.0625 L 32.921875 -28.734375 L 21.765625 -28.734375 L 21.765625 0 L 11.046875 0 L 11.046875 -28.734375 L -0.859375 -28.734375 L -0.859375 -38.0625 Z M 34.46875 -38.0625 "/></g></g></g><g fill="#6c63ff" fill-opacity="1"><g transform="translate(330.575344, 113.834613)"><g><path d="M -2.09375 0 L 14.6875 -38.0625 L 23.59375 -38.0625 L 39.78125 0 L 28.953125 0 L 26.265625 -6.8125 L 11.53125 -6.8125 L 8.734375 0 Z M 15.171875 -15.65625 L 22.734375 -15.65625 L 19.03125 -24.984375 Z M 15.171875 -15.65625 "/></g></g></g></svg>