<svg xmlns="http://www.w3.org/2000/svg" xmlns:xlink="http://www.w3.org/1999/xlink" width="600" zoomAndPan="magnify" viewBox="0 0 450 187.499995" height="250" preserveAspectRatio="xMidYMid meet" version="1.0"><defs><g/><clipPath id="6969123098"><path d="M 12 21 L 148 21 L 148 168.375 L 12 168.375 Z M 12 21 " clip-rule="nonzero"/></clipPath></defs><path fill="#6c63ff" d="M 63.371094 72.621094 C 62.894531 73.082031 62.523438 73.617188 62.265625 74.226562 C 62.007812 74.839844 61.882812 75.480469 61.890625 76.144531 L 61.890625 87.0625 L 109.652344 87.0625 L 109.652344 102.976562 L 61.890625 102.976562 L 61.890625 113.894531 C 61.894531 114.222656 61.929688 114.546875 61.996094 114.867188 C 62.0625 115.1875 62.160156 115.5 62.285156 115.800781 C 62.414062 116.105469 62.566406 116.390625 62.75 116.664062 C 62.933594 116.933594 63.140625 117.1875 63.371094 117.417969 C 63.605469 117.648438 63.855469 117.855469 64.128906 118.039062 C 64.398438 118.222656 64.6875 118.378906 64.988281 118.503906 C 65.289062 118.632812 65.601562 118.726562 65.921875 118.792969 C 66.242188 118.859375 66.566406 118.894531 66.894531 118.898438 L 155.0625 118.898438 C 156.382812 115.054688 157.375 111.132812 158.042969 107.125 C 158.710938 103.117188 159.046875 99.082031 159.046875 95.019531 C 159.046875 90.957031 158.710938 86.921875 158.042969 82.914062 C 157.375 78.90625 156.382812 74.984375 155.0625 71.140625 L 66.894531 71.140625 C 66.230469 71.132812 65.59375 71.257812 64.980469 71.515625 C 64.367188 71.773438 63.832031 72.140625 63.371094 72.621094 Z M 63.371094 72.621094 " fill-opacity="1" fill-rule="nonzero"/><g clip-path="url(#6969123098)"><path fill="#6c63ff" d="M 61.890625 134.816406 C 59.738281 134.828125 57.671875 134.410156 55.695312 133.558594 C 53.789062 132.75 52.105469 131.613281 50.640625 130.148438 C 49.179688 128.683594 48.042969 127 47.234375 125.09375 C 46.386719 123.117188 45.96875 121.050781 45.984375 118.898438 L 45.984375 71.140625 C 45.96875 68.988281 46.386719 66.921875 47.234375 64.945312 C 48.042969 63.039062 49.179688 61.355469 50.640625 59.890625 C 52.105469 58.425781 53.789062 57.292969 55.695312 56.484375 C 57.675781 55.636719 59.738281 55.21875 61.890625 55.234375 L 147.304688 55.234375 C 145.648438 52.671875 143.84375 50.226562 141.882812 47.890625 C 139.925781 45.554688 137.828125 43.351562 135.59375 41.28125 C 133.359375 39.207031 131.003906 37.28125 128.53125 35.503906 C 126.054688 33.726562 123.480469 32.109375 120.804688 30.652344 C 118.125 29.195312 115.367188 27.910156 112.53125 26.796875 C 109.695312 25.683594 106.800781 24.753906 103.84375 24.003906 C 100.890625 23.25 97.902344 22.6875 94.878906 22.308594 C 91.855469 21.933594 88.820312 21.742188 85.769531 21.746094 C 45.304688 21.746094 12.496094 54.550781 12.496094 95.019531 C 12.496094 135.488281 45.304688 168.292969 85.769531 168.292969 C 88.820312 168.296875 91.855469 168.109375 94.878906 167.730469 C 97.902344 167.355469 100.890625 166.789062 103.84375 166.039062 C 106.796875 165.289062 109.691406 164.359375 112.53125 163.246094 C 115.367188 162.132812 118.125 160.847656 120.800781 159.394531 C 123.476562 157.9375 126.054688 156.320312 128.527344 154.542969 C 131.003906 152.761719 133.359375 150.839844 135.59375 148.765625 C 137.828125 146.695312 139.925781 144.492188 141.882812 142.15625 C 143.84375 139.824219 145.648438 137.375 147.304688 134.816406 Z M 61.890625 134.816406 " fill-opacity="1" fill-rule="nonzero"/></g><g fill="#6c63ff" fill-opacity="1"><g transform="translate(171.426943, 110.15407)"><g><path d="M 30.46875 -8.171875 L 32.5 -1.328125 C 31.789062 -0.765625 30.84375 -0.316406 29.65625 0.015625 C 28.476562 0.359375 27.28125 0.53125 26.0625 0.53125 C 23.726562 0.53125 21.789062 0.101562 20.25 -0.75 C 18.707031 -1.613281 17.460938 -2.828125 16.515625 -4.390625 L 13.59375 -9.328125 C 13.238281 -9.921875 12.894531 -10.363281 12.5625 -10.65625 C 12.238281 -10.945312 11.84375 -11.140625 11.375 -11.234375 L 11.375 0 L 2.671875 0 L 2.671875 -31.53125 L 13.328125 -31.53125 C 18.179688 -31.53125 21.769531 -30.609375 24.09375 -28.765625 C 26.414062 -26.929688 27.578125 -24.390625 27.578125 -21.140625 C 27.578125 -18.828125 26.910156 -16.90625 25.578125 -15.375 C 24.242188 -13.851562 22.484375 -12.785156 20.296875 -12.171875 C 21.421875 -11.816406 22.304688 -11.148438 22.953125 -10.171875 L 23.75 -8.96875 C 24.5 -7.8125 25.640625 -7.234375 27.171875 -7.234375 C 27.734375 -7.234375 28.285156 -7.300781 28.828125 -7.4375 C 29.378906 -7.570312 29.925781 -7.816406 30.46875 -8.171875 Z M 13.234375 -24.375 L 11.375 -24.375 L 11.375 -18.125 L 13.625 -18.125 C 15.550781 -18.125 16.890625 -18.378906 17.640625 -18.890625 C 18.398438 -19.410156 18.78125 -20.21875 18.78125 -21.3125 C 18.78125 -22.5 18.269531 -23.304688 17.25 -23.734375 C 16.226562 -24.160156 14.890625 -24.375 13.234375 -24.375 Z M 13.234375 -24.375 "/></g></g></g><g fill="#6c63ff" fill-opacity="1"><g transform="translate(209.967161, 110.15407)"><g><path d="M 25.671875 -23.9375 L 11.40625 -23.9375 L 11.40625 -19.625 L 24.515625 -19.625 L 24.515625 -12.03125 L 11.40625 -12.03125 L 11.40625 -7.59375 L 26.015625 -7.59375 L 25.484375 0 L 2.671875 0 L 2.671875 -31.53125 L 25.671875 -31.53125 Z M 25.671875 -23.9375 "/></g></g></g><g fill="#6c63ff" fill-opacity="1"><g transform="translate(244.467059, 110.15407)"><g><path d="M 18.6875 -17.890625 L 33.171875 -17.890625 L 33.171875 0 L 26.15625 0 L 25.578125 -2.703125 C 24.660156 -1.640625 23.445312 -0.84375 21.9375 -0.3125 C 20.425781 0.21875 18.8125 0.484375 17.09375 0.484375 C 13.863281 0.484375 11.054688 -0.132812 8.671875 -1.375 C 6.296875 -2.613281 4.457031 -4.40625 3.15625 -6.75 C 1.851562 -9.09375 1.203125 -11.875 1.203125 -15.09375 C 1.203125 -18.4375 1.945312 -21.375 3.4375 -23.90625 C 4.9375 -26.4375 7.039062 -28.410156 9.75 -29.828125 C 12.457031 -31.253906 15.617188 -31.96875 19.234375 -31.96875 C 22.578125 -31.96875 25.34375 -31.4375 27.53125 -30.375 C 29.71875 -29.3125 31.539062 -27.679688 33 -25.484375 L 26.25 -20.609375 C 25.5625 -21.816406 24.570312 -22.6875 23.28125 -23.21875 C 22 -23.757812 20.660156 -24.03125 19.265625 -24.03125 C 16.546875 -24.03125 14.394531 -23.226562 12.8125 -21.625 C 11.226562 -20.03125 10.4375 -17.925781 10.4375 -15.3125 C 10.4375 -12.832031 11.125 -10.894531 12.5 -9.5 C 13.875 -8.113281 15.773438 -7.421875 18.203125 -7.421875 C 19.597656 -7.421875 20.847656 -7.707031 21.953125 -8.28125 C 23.066406 -8.851562 23.847656 -9.675781 24.296875 -10.75 L 18.6875 -10.75 Z M 18.6875 -17.890625 "/></g></g></g><g fill="#6c63ff" fill-opacity="1"><g transform="translate(287.358397, 110.15407)"><g><path d="M 2.671875 0 L 2.671875 -31.53125 L 11.546875 -31.53125 L 11.546875 0 Z M 2.671875 0 "/></g></g></g><g fill="#6c63ff" fill-opacity="1"><g transform="translate(309.648556, 110.15407)"><g><path d="M 13.28125 0.4375 C 9.3125 0.4375 6.21875 -0.40625 4 -2.09375 C 1.78125 -3.78125 0.519531 -6.234375 0.21875 -9.453125 L 8.4375 -10.65625 C 8.5 -9.53125 8.992188 -8.617188 9.921875 -7.921875 C 10.859375 -7.234375 12.066406 -6.890625 13.546875 -6.890625 C 16.265625 -6.890625 17.625 -7.597656 17.625 -9.015625 C 17.625 -9.660156 17.242188 -10.179688 16.484375 -10.578125 C 15.734375 -10.984375 14.5 -11.394531 12.78125 -11.8125 C 9.113281 -12.695312 6.421875 -13.878906 4.703125 -15.359375 C 2.984375 -16.835938 2.140625 -18.925781 2.171875 -21.625 C 2.203125 -23.664062 2.742188 -25.460938 3.796875 -27.015625 C 4.847656 -28.578125 6.328125 -29.789062 8.234375 -30.65625 C 10.140625 -31.53125 12.382812 -31.96875 14.96875 -31.96875 C 18.132812 -31.96875 20.742188 -31.164062 22.796875 -29.5625 C 24.859375 -27.96875 26.035156 -25.796875 26.328125 -23.046875 L 18.5625 -21.71875 C 18.414062 -22.570312 17.960938 -23.269531 17.203125 -23.8125 C 16.453125 -24.363281 15.539062 -24.640625 14.46875 -24.640625 C 13.46875 -24.640625 12.660156 -24.441406 12.046875 -24.046875 C 11.441406 -23.648438 11.140625 -23.109375 11.140625 -22.421875 C 11.140625 -21.804688 11.441406 -21.265625 12.046875 -20.796875 C 12.660156 -20.335938 13.8125 -19.90625 15.5 -19.5 C 17.925781 -18.90625 19.957031 -18.226562 21.59375 -17.46875 C 23.238281 -16.71875 24.484375 -15.75 25.328125 -14.5625 C 26.171875 -13.375 26.59375 -11.820312 26.59375 -9.90625 C 26.59375 -7.863281 26.035156 -6.0625 24.921875 -4.5 C 23.816406 -2.945312 22.265625 -1.734375 20.265625 -0.859375 C 18.273438 0.00390625 15.945312 0.4375 13.28125 0.4375 Z M 13.28125 0.4375 "/></g></g></g><g fill="#6c63ff" fill-opacity="1"><g transform="translate(344.947641, 110.15407)"><g><path d="M 28.546875 -31.53125 L 27.265625 -23.796875 L 18.03125 -23.796875 L 18.03125 0 L 9.140625 0 L 9.140625 -23.796875 L -0.703125 -23.796875 L -0.703125 -31.53125 Z M 28.546875 -31.53125 "/></g></g></g><g fill="#6c63ff" fill-opacity="1"><g transform="translate(380.157932, 110.15407)"><g><path d="M 25.671875 -23.9375 L 11.40625 -23.9375 L 11.40625 -19.625 L 24.515625 -19.625 L 24.515625 -12.03125 L 11.40625 -12.03125 L 11.40625 -7.59375 L 26.015625 -7.59375 L 25.484375 0 L 2.671875 0 L 2.671875 -31.53125 L 25.671875 -31.53125 Z M 25.671875 -23.9375 "/></g></g></g><g fill="#6c63ff" fill-opacity="1"><g transform="translate(414.65783, 110.15407)"><g><path d="M 30.46875 -8.171875 L 32.5 -1.328125 C 31.789062 -0.765625 30.84375 -0.316406 29.65625 0.015625 C 28.476562 0.359375 27.28125 0.53125 26.0625 0.53125 C 23.726562 0.53125 21.789062 0.101562 20.25 -0.75 C 18.707031 -1.613281 17.460938 -2.828125 16.515625 -4.390625 L 13.59375 -9.328125 C 13.238281 -9.921875 12.894531 -10.363281 12.5625 -10.65625 C 12.238281 -10.945312 11.84375 -11.140625 11.375 -11.234375 L 11.375 0 L 2.671875 0 L 2.671875 -31.53125 L 13.328125 -31.53125 C 18.179688 -31.53125 21.769531 -30.609375 24.09375 -28.765625 C 26.414062 -26.929688 27.578125 -24.390625 27.578125 -21.140625 C 27.578125 -18.828125 26.910156 -16.90625 25.578125 -15.375 C 24.242188 -13.851562 22.484375 -12.785156 20.296875 -12.171875 C 21.421875 -11.816406 22.304688 -11.148438 22.953125 -10.171875 L 23.75 -8.96875 C 24.5 -7.8125 25.640625 -7.234375 27.171875 -7.234375 C 27.734375 -7.234375 28.285156 -7.300781 28.828125 -7.4375 C 29.378906 -7.570312 29.925781 -7.816406 30.46875 -8.171875 Z M 13.234375 -24.375 L 11.375 -24.375 L 11.375 -18.125 L 13.625 -18.125 C 15.550781 -18.125 16.890625 -18.378906 17.640625 -18.890625 C 18.398438 -19.410156 18.78125 -20.21875 18.78125 -21.3125 C 18.78125 -22.5 18.269531 -23.304688 17.25 -23.734375 C 16.226562 -24.160156 14.890625 -24.375 13.234375 -24.375 Z M 13.234375 -24.375 "/></g></g></g></svg>