<svg id="undraw_warning_re_eoyh" xmlns="http://www.w3.org/2000/svg" width="957.568" height="763.38" viewBox="0 0 957.568 763.38">
  <path id="Path_398" data-name="Path 398" d="M443.567,469.311a4.142,4.142,0,0,0,3-7.18L446.282,461l.112-.27a10.605,10.605,0,0,1,13.818-5.683c17,7.028-.948,23.178.4,34.107.473,3.772,15.248,3.979,14.412,7.681a131.921,131.921,0,0,0,11.981-54.795,127.345,127.345,0,0,0-.795-14.2q-.656-5.8-1.819-11.516a133.45,133.45,0,0,0-26.483-56.55c-6.32-3.452-2.465-8.852-5.65-15.322-1.144-2.334-11.348-2.386-11.773-4.944.457.06,7.053-6.791,4.874-10.178a5.615,5.615,0,0,1,.854-6.972,5.86,5.86,0,0,0,.507-.6c5.44-7.381,12.94-6.1,16.858,3.931,8.364,4.218,8.448,11.218,3.319,17.952-3.263,4.284-3.71,10.08-6.573,14.667.295.377.6.742.9,1.12a134.307,134.307,0,0,1,14.026,22.2,55.833,55.833,0,0,1,3.324-25.935c3.211-7.754,9.252-14.276,14.544-20.982a11.4,11.4,0,0,1,20.3,5.766q.016.146.031.292-1.174.663-2.3,1.407a5.617,5.617,0,0,0,2.27,10.222l.115.018c-.282,2.817-10.28,11.693-10.986,14.44,6.762,26.114,1.7,29.562-19.1,30l-1.092,1.555a137.2,137.2,0,0,1,7.089,33.866,130.027,130.027,0,0,1-.087,20.995l.035-.247a34.358,34.358,0,0,1,11.722-19.843c9.024-7.418,21.775-10.153,31.51-16.116,4.686-2.871,10.694.835,9.878,6.27l-.04.26a37.731,37.731,0,0,0-4.231,2.041q-1.175.664-2.3,1.408a5.616,5.616,0,0,0,2.272,10.221l.115.018.236.035c-2.485,5.906-26.164,14.238-30.5,18.967-4.216,22.81-2.145,22.131-21.556,15.5h-.012a137.048,137.048,0,0,1-9.2,26.88l-32.888.011c-.118-.365-.224-.743-.331-1.108a37.366,37.366,0,0,0,9.1-.545c-2.441-2.993-4.882-6.01-7.323-9a2.041,2.041,0,0,1-.153-.177l-.037-.046-3.386-11.146a56.167,56.167,0,0,1,1.3-7.338h0Z" transform="translate(363.439 261.594)" fill="#f2f2f2"/>
  <path id="Path_399" data-name="Path 399" d="M401.628,572.619l-291.023.1A40.356,40.356,0,0,1,75.56,512.068L220.979,247.341a40.444,40.444,0,0,1,70.05-.024L436.65,511.976a40.443,40.443,0,0,1-35.022,60.644h0ZM73.743,532.286c0,6.322,23.56,36.789,36.861,36.784,0,0,316.233-6.986,322.88-18.508a36.417,36.417,0,0,0-.014-36.793L287.849,249.109A36.4,36.4,0,0,0,256,230.757c-13.3,0-182.255,295.206-182.255,301.528h0Z" transform="translate(57.826 187.383)" fill="#3f3d56"/>
  <path id="Path_400" data-name="Path 400" d="M253.541,435.358c-3.648,7.3,167.2,5.058,169.223,5.057,0,0,48.021-1.061,49.031-2.81a5.53,5.53,0,0,0,0-5.587l-22.113-40.19a5.528,5.528,0,0,0-4.837-2.787.7.7,0,0,0-.368.218c-29.5,26.361-65.854,43.788-105.412,44.376-42.063.625-85.29,1.259-85.522,1.723h0Z" transform="translate(209.146 320.992)" fill="#3f3d56"/>
  <path id="Path_401" data-name="Path 401" d="M0,418.212a2.165,2.165,0,0,0,2.173,2.171l953.224-.33a2.172,2.172,0,1,0,0-4.344l-953.224.33A2.166,2.166,0,0,0,0,418.212Z" transform="translate(0 342.997)" fill="#ccc"/>
  <g id="Group_188" data-name="Group 188" transform="translate(679.771 686.995)">
    <path id="Path_402" data-name="Path 402" d="M414.9,440.09l-16.508.005-7.875-63.67,24.363-.007Z" transform="translate(-357.56 -376.418)" fill="#ffb8b8"/>
    <path id="Path_403" data-name="Path 403" d="M373.243,419.537h0a14.173,14.173,0,0,0-.784,4.666h0a5.6,5.6,0,0,0,5.6,5.6l51.122-.018a3.822,3.822,0,0,0,3.821-3.824v-2.128s2.527-6.4-2.683-14.28c0,0-6.469,6.176-16.142-3.49l-2.853-5.165L390.693,416l-11.44,1.412c-2.5.309-4.722-.046-6.009,2.123h0Z" transform="translate(-372.46 -356.219)" fill="#2f2e41"/>
  </g>
  <g id="Group_189" data-name="Group 189" transform="translate(620.085 635.898)">
    <path id="Path_404" data-name="Path 404" d="M388.857,408.735l-15.635,5.289-27.853-57.793,23.078-7.81Z" transform="translate(-335.125 -348.421)" fill="#ffb8b8"/>
    <path id="Path_405" data-name="Path 405" d="M339.8,404.7h0a14.176,14.176,0,0,0,.752,4.672h0a5.6,5.6,0,0,0,7.1,3.511l48.423-16.39a3.822,3.822,0,0,0,2.4-4.846l-.682-2.016s.345-6.87-7.115-12.669c0,0-4.15,7.922-16.409,1.863l-4.357-3.979L355.2,395.767l-10.385,5c-2.272,1.094-4.488,1.469-5.013,3.935h0Z" transform="translate(-339.756 -326.614)" fill="#2f2e41"/>
  </g>
  <path id="Path_406" data-name="Path 406" d="M386.789,182.732,354.771,288.771l-37.8,95.381,59.843,136.213L399,510.494,372.453,385.366l55.678-84.909,25.982,265.061,22.191-1.239,30.1-319.945,4.291-69.658Z" transform="translate(261.529 144.123)" fill="#2f2e41"/>
  <path id="Path_407" data-name="Path 407" d="M456.221,50.385l-46.846,8.646-3.691,20.96L377.332,93.563,362.591,247.679s-24.646,32.063-4.917,41.92l125.75-12.372s6.156-22.8-.009-24.959-6.184-56.613-6.184-56.613l28.317-112-41.923-14.78-7.4-18.491Z" transform="translate(288.797 41.572)" fill="#6c63ff"/>
  <circle id="Ellipse_18" data-name="Ellipse 18" cx="37.83" cy="37.83" r="37.83" transform="translate(679.557 15.893)" fill="#ffb8b8"/>
  <path id="Path_408" data-name="Path 408" d="M439.331,59.338c-3.019,1.653-.155,9.543-2.041,10.225-2.181.788-10.132-8.262-10.231-18.4-.03-3.068.676-4.542,0-8.179-.888-4.759-3.615-10.371-6.138-10.222-1.5.088-2.957,2.2-3.066,4.091-.153,2.645,2.417,3.686,2.047,5.111-.7,2.714-11.495,4.588-15.336.005-3.012-3.593-.7-9.9-2.048-10.224-.992-.238-2.058,3.235-6.132,7.159-1.535,1.479-3.818,3.677-5.111,3.069-1.869-.879-.511-7.074-1.025-7.157-.426-.068-.693,4.287-3.065,8.18-3.047,5-9.333,8.858-12.267,7.161-1.8-1.04-1.939-3.935-2.047-6.134-.227-4.632-6.959-15.288-5.218-20.243,3.545-10.086,9.618-2.976,12.365-6.342,3.719-4.557,7.055-2.107,13.289-7.162,6.09-4.938,6.143-9.9,10.221-10.228,3.672-.294,4.979,3.623,9.2,3.064,3.579-.474,4.357-3.512,7.156-3.07,2.562.4,2.731,3.082,6.136,4.088,2.174.642,2.651-.287,5.112,0,5.12.594,8.56,5.258,9.2,6.131,2.484,3.368,1.52,4.788,4.093,8.178,2.218,2.923,7.134,1.682,8.983,3.142,6.04,4.771,8.635,13.569,8.687,23.6.037,7.014-.878,10.558-2.919,19.411C457.631,71.312,450.454,80,446.5,83.873c-1.062,1.04-4.04,3.955-6.133,3.069-1.984-.839-2.044-4.613-2.047-5.111-.009-1.714.448-3.834,4.086-9.2,3.823-5.64,5.341-6.283,5.109-8.181-.41-3.355-5.775-6.427-8.181-5.109h0Z" transform="translate(303.106 0)" fill="#2f2e41"/>
  <g id="Group_190" data-name="Group 190" transform="translate(609.644 134.14)">
    <path id="Path_409" data-name="Path 409" d="M334.586,249.485c-1.177,9.86,2.955,18.461,9.229,19.21s12.316-6.637,13.493-16.5a24.856,24.856,0,0,0-1.24-11.672l4.465-41.843-19.681-1.677-2.313,41.427a24.855,24.855,0,0,0-3.954,11.051h0Z" transform="translate(-333.748 28.407)" fill="#ffb8b8"/>
    <path id="Path_410" data-name="Path 410" d="M391.444,73.5s-10.2.145-16.947,13.33c-3.587,7.006-22.781,138.027-22.781,138.027l-17.68,107.331,30.118.152,23.469-101.645,19.742-58.952L391.444,73.5Z" transform="translate(-334.036 -73.498)" fill="#6c63ff"/>
  </g>
  <path id="Path_411" data-name="Path 411" d="M412.465,239.993c-2.884,9.5-.32,18.693,5.727,20.529s13.287-4.38,16.171-13.882a24.855,24.855,0,0,0,.82-11.709L446.9,194.514l-19.084-5.094L418.291,229.8a24.856,24.856,0,0,0-5.826,10.189h0Z" transform="translate(339.342 156.288)" fill="#ffb8b8"/>
  <path id="Path_412" data-name="Path 412" d="M439.013,71.221s14.791-11.1,27.126,6.155,17.315,159.036,17.315,159.036l-34.49,87.546-25.893-8.621,24.621-107.269-43.179-81.355,34.5-55.492h0Z" transform="translate(333.757 55.864)" fill="#6c63ff"/>
  <g id="Group_192" data-name="Group 192" transform="translate(265.514 435.157)">
    <circle id="Ellipse_19" data-name="Ellipse 19" cx="133.231" cy="133.231" r="133.231" fill="#6c63ff"/>
    <g id="Group_191" data-name="Group 191" transform="translate(108.062 51.559)">
      <circle id="Ellipse_20" data-name="Ellipse 20" cx="12.233" cy="12.233" r="12.233" transform="translate(12.96 138.881)" fill="#fff"/>
      <path id="Path_413" data-name="Path 413" d="M229.829,266.681l.9,41.22s6.65,75.475-.9,75.477S204.689,282.4,204.689,282.4l25.14-15.724Z" transform="translate(-204.689 -266.681)" fill="#fff"/>
    </g>
  </g>
  <path id="Path_414" data-name="Path 414" d="M184.678,419.833l-12.037,25.433c14.552-10.435,37.281-19.43,55.369-24.248-16.853-8.141-37.475-21.266-49.795-34.26l6.923,26.873C103.969,397.1,45.68,334.83,45.656,263.5l-2.932-1.009C42.75,337,100.232,402.953,184.678,419.833Z" transform="translate(35.251 216.579)" fill="#3f3d56"/>
</svg>
