<svg xmlns="http://www.w3.org/2000/svg" xmlns:xlink="http://www.w3.org/1999/xlink" width="671.536" height="745.542" viewBox="0 0 671.536 745.542">
  <defs>
    <clipPath id="clip-path">
      <path id="Path_417" data-name="Path 417" d="M18,17H160.25V171.553H18Zm0,0" transform="translate(-18 -17)"/>
    </clipPath>
  </defs>
  <g id="Group_206" data-name="Group 206" transform="translate(-116.5 -218.487)">
    <g id="_1749309245008" transform="translate(119 221)">
      <g id="layer1_1" transform="translate(0 0)">
        <g id="g3488_2" transform="translate(0 0)">
          <path id="path2550_3" d="M224.167,35.067s8.436.739,13.567-.371,11.37-1.85,15.036-4.068,11-11.464,11-11.464,7.336-6.657,9.169-7.4,13.567-8.136,13.567-8.136,14.668-2.589,17.6,0,11.37,12.575,15.4,15.9,8.068,7.768,6.968,9.246-1.833,2.589-5.5,2.218-6.968-1.479-6.968.371.368,5.178,1.833,7.4,2.934,8.136,1.1,8.136-5.135,0-5.135,2.589-.368,2.957,3.3,3.7a53.9,53.9,0,0,1,11.734,4.068c1.833,1.111,10.269,11.1,13.2,11.836s12.47,1.85,13.2,4.068,3.666,6.657,2.2,6.657,12.467-.371,14.3,1.111,8.8,6.289,9.169,8.136,4.4,5.178,4.4,5.178a11.578,11.578,0,0,0,6.6-.739c3.666-1.479,7.7-3.7,11.734-3.7s11.734,2.589,13.2,5.918,6.235,15.164,6.235,16.643,5.5,17.014,5.867,20.714,3.3,12.207,5.135,14.053,2.934,5.55,4.767,4.068,6.968-8.136,10.269-9.986,4.034-1.111,6.235.739,4.034,5.918,4.767,8.507,2.566,5.918,1.1,13.314-.368,7.768,0,12.575,2.2,9.986,7.336,15.535,7.336,8.136,7.336,8.136,11.734-1.85,14.668-.739,10.634,8.507,14.668,11.468,4.4,5.918,11.734,4.068,13.567-1.85,15.768,0,2.569,5.918,1.465,10.725-3.3,9.246-3.3,12.575,1.465,4.439.368,9.986-3.3,9.618-4.034,13.686-.733,8.507-3.3,8.507-5.135-1.111-4.034,1.479,3.3,8.136,7.336,6.289,13.935-2.218,17.237-2.218,13.567,3.7,16.136,4.439,9.169,6.657,11.37,5.55,13.935-2.961,13.935-2.961,4.767-1.479,5.135.739,4.034,5.546,5.867,6.657-.733,2.589,1.1,4.807,4.4,4.439,8.068,4.439,10.212,6.745,12.781,10.445,13.172-4.439,19.04-6.289,17.689-3.788,18.422-3.416,6.968,10.725,9.169,12.207,6.235,9.246,5.5,10.725,1.1,3.7-.733,5.178a77.222,77.222,0,0,1-12.1,6.657c-2.2.739-3.3,4.439-1.469,5.918s1.833,5.55,1.1,6.657-7.7,2.961-6.6,5.55,5.135,8.136,4.767,11.1-.368,10.357-2.2,12.207-11,7.768-12.467,10.357-3.666,6.289-3.666,9.986S631.6,405.671,628.667,409s-11,11.836-11,13.314-4.767,1.85-5.867,7.028.368,14.8.733,18.493-.368,14.053-2.566,16.643-4.4,7.028-8.8,6.657-5.135-1.479-9.9,1.85-11,8.136-13.935,9.618-6.235,2.589-5.5,9.246,4.767,8.136,10.269,14.054,9.9,11.836,9.9,15.535,1.465,8.507-.732,9.986-5.5,1.111-11,2.961a60.2,60.2,0,0,1-15.768,2.957c-3.3,0-6.968-4.439-6.968-4.439s0-.739-1.468,1.479-5.5,6.657-8.8,5.918-8.068-9.986-10.269-7.768-5.5,4.439-3.666,5.918,5.867,4.807,5.135,7.4-.368,6.289-2.569,5.178-6.968-5.918-12.1-7.4-11.37,2.957-14.668,7.028-9.169,11.836-9.9,14.054-1.465,7.028-2.934,9.986-1.833,7.4-5.135,8.136-6.968,1.479-5.867,3.7-1.468,1.85,2.934,8.136,8.8,15.9,6.6,17.382-4.4,5.55-10.269,5.178-9.533-4.439-11.734-3.7-4.034,4.068-6.235,2.218-7.336-2.218-9.169-6.657-1.833-15.535-5.5-18.125-11.988-9.8-15.657-14.236S420,559.9,417.436,560.269s-6.968.371-9.169,2.589-9.533,10.357-12.835,11.468-4.767,6.289-8.436,8.136-7.336,5.55-12.835,5.918-12.835,8.136-17.237,7.768a44.824,44.824,0,0,0-13.2,1.479c-2.566.739-16.869,11.1-21.636,12.207s-16.869,6.657-19.438,7.4-8.8-1.111-13.935,7.029-7.336,14.053-8.068,20.714.368,12.575-1.468,15.164-4.767,7.4-3.3,11.836,4.767,11.836,6.6,15.9,3.3,13.314,1.468,15.164-7.336,8.136-9.533,15.9-4.767,16.275-7.7,17.385-9.533,5.918-12.835,6.657-16.136-16.643-17.237-14.8-2.2,9.618-9.169,10.725-9.169-3.7-11.37-2.961.368-2.218-3.3-5.546-5.5-3.329-4.034-5.178-7.7-14.8-4.4-18.493,9.533-9.986,12.1-11.836,6.235-12.946,4.4-15.164-5.135-11.1-5.135-14.8-4.4-16.643-4.767-19.6S204,631.651,200.7,627.583s-2.569-11.836-1.1-14.053-2.934-7.029-1.833-8.507,5.5-6.289,2.934-9.246-5.867-14.425-9.533-19.232-4.034-8.507-4.767-12.575-.368-9.246-3.666-12.575-21.636-27.371-21.636-27.371-1.833-2.961-9.533-4.439-12.1-3.7-14.668-7.768-9.9-5.55-12.1-6.289a9.51,9.51,0,0,1-5.5-6.289c-.733-2.961-2.934-7.028-4.767-6.289s-6.235,5.55-9.533,4.807-8.436-3.329-11-2.589-8.8,2.218-12.1.739-5.5-6.289-5.135-9.986-2.934-2.218-1.833-7.028,5.5-10.725.368-13.686-12.47-7.768-11-10.725,5.5-5.918,5.5-9.618-1.1-10.725-4.767-12.946-7.7-1.85-6.6-5.178,3.666-4.439.733-6.657-4.4-4.439-3.666-6.657-1.1.371-2.934-4.068-3.3-9.618-3.3-9.618,1.107-1.367-9.159-6.546-20.545-12.686-20.545-14.908,6.6-9.986,4.4-13.314-4.4-7.768-4.034-11.468.733-5.918,2.2-8.875,5.5-4.807,5.5-7.4-1.833-4.439,1.465-7.4,9.533-5.918,7.336-8.507-5.135-7.4-11.37-9.986-2.569-9.986-4.034-10.357-11.37-2.589-14.3-7.768-4.767-11.1-4.034-15.535,5.135-9.246,6.6-10.357,9.9-5.546,11-7.768,4.767-2.957,6.6-2.589,7.336,2.218,9.533,2.589,7.336,8.507,11.734,9.246,10.634,4.807,13.567,4.439,11.734-.371,12.1-2.218.368-10.725-2.569-12.575-1.1-5.179,1.1-9.986,4.034-5.918,9.533-7.4,11-1.85,12.1-4.439,4.034-5.55,9.9-4.807,10.634-1.479,15.036-2.218,11.37-.739,16.5-2.957,7.7-4.068,13.567-4.068,11.734-.371,15.768-2.957,8.436-3.329,12.47-7.4,8.8-9.246,5.867-12.207-8.433-10.357-10.634-9.986-9.169-4.807-9.169-9.246-1.1-9.246,1.1-11.464,1.833-5.918,6.235-8.136,2.934-6.657,8.8-7.028,10.269,4.807,13.935,2.218,8.8-7.4,8.8-10.725-.368-8.875,3.666-10.725,9.169-2.589,9.169,0,1.833,7.4,4.4,7.028,2.566-4.807,6.6-8.136,9.9-4.439,9.9-7.028-.368-7.4.365-10.725,2.934-11.1,4.034-14.8,5.135-9.246,7.336-11.464-.368-8.507-4.767-8.136-5.867,3.329-11,0-2.934-7.4-1.465-9.246-.368-.739-2.2-6.657S223.8,58,221.6,55.41s-4.767-6.289-2.2-8.136,4.4-7.4,4.4-7.4l.368-4.807Z" transform="translate(-2.512 -2.441)" fill="#f2f2f2" stroke="#e1e1e1" stroke-miterlimit="2.613" stroke-width="4.95" fill-rule="evenodd"/>
          <path id="path3188_4" d="M877.79,306.409c1.526-1.225-.206-1.711.885-4.611a9.483,9.483,0,0,1,2.876-3.153c2.461-1.317,2.738-3.784,3.751-4.375s1.225-4.76,2.13-5.091.5,3.372,1.34,5.5a31.176,31.176,0,0,0,4.632,7.43c2.009,2.3,4.2,5.006,5.584,6.424,3.22,3.291,3.291,2.977,5.043,7.923.874,2.474,1.651,6.029,3.035,9.28a24.221,24.221,0,0,0,4.568,6.6c2.2,1.85,6.137,6.741,6.873,9.331.368,1.293,5.432,14.02,5.388,15.417-.02.7.719,5.033-.24,5.415s-4.53-2.792-6.8-2.64c-7.525.506-12.575-.81-16.511,1.978C897.279,364,893.268,370.7,889.8,374.3s-6.988,8.689-10.654,9.611c-13.48,3.386-11.559,10.023-11.559,10.023-.324,8.521.429,4.976.1,8.129s-1.715,6.006-3.275,7.123c-7.231,5.182-6.674-.165-10.107,1.431-5.546,2.579-21.311,10.536-22.591,11.451-.972.7-5.2-1.563-12.146-2.478-3.474-.456-7.981,2.36-11.468,1.61s-5.293-4.287-5.719-5.432c-1.023-2.768-4.193-11.775-4.679-13.6-3.345-12.528-2.64-14.546-1.151-17.007.371-.611,7.876-.928,10.431-1.87s7.872-1,11.316-2.066,3.248-7.829,2.859-11c-.23-1.894.209-9.03,1.182-9.317,1.452-.429,1.185,5.074,2.778,7.538a4.7,4.7,0,0,0,3.757,2.461c4.507,1.215,10.85,4.281,15.455,4.088.925-.037,3.173-5.573,2.893-8.251s-2.208-4-2.255-6.532c-.051-2.68.287-5.229-.766-6.9s-3.494-2.454-5.3-4.456c-2.829-3.129-4.7-3.237-5.371-7.528-.186-1.188-.277-3.426-.385-5.418s-.294-3.453.591-5.32a14.942,14.942,0,0,0,1.03-5.361c.179-1.431-.992-3.383-.689-3.251l3.943,1.715c2.019.412,7.42,1.6,8.234,1.384,1.627-.422.442-1.688.614-2.67s1.114-1.563,1.546-2.275.925-1.577,3.356-1.4c14.725,1.043,14.047-7.974,18.385-10.7,2.444-1.536,5.182.344,7.626-1.617Z" transform="translate(-527.679 -192.341)" fill="#f2f2f2" stroke="#e1e1e1" stroke-miterlimit="2.613" stroke-width="1.24" fill-rule="evenodd"/>
          <path id="path3190_5" d="M1451.687,1038.833a43.552,43.552,0,0,1,1.4-5.719c1.971-6.2,2.5-5.614,3.538-9.186s1.539-6.63,2.255-9.6c.8-3.318,1.472-6.313,3.443-6.687,4.358-.83,4.787.55,8.088.55s9.763-.969,12.767-1.192c2.664-.2,5.4-.9,7.906,1.907,1.641,1.84,1.134,8.082,2.3,9.881,1.347,2.083,3.278,4.777,2.414,8.919-.395,1.887.068,1.6-.709,6.063-.388,2.231-1.273,4.726-1.175,8.156a28.815,28.815,0,0,1-.6,7.167c-.739,1.344-1.512.533-3.312.223s-5.161,1.013-7.363.064a18.654,18.654,0,0,1-4.638-3.193,27.086,27.086,0,0,1-4.179-4.28c-1.664-2.306-2.785-3.065-4.925-3.126s-4.075.483-6.93,1.138c-.726.165-1.715.516-2.529.635a11.648,11.648,0,0,1-2.5.081c-.834-.061-1.884-.051-2.664-.088l-2.853-.139.273-1.566Z" transform="translate(-962.296 -667.703)" fill="#f2f2f2" stroke="#e1e1e1" stroke-miterlimit="2.613" stroke-width="1.24" fill-rule="evenodd"/>
          <path id="path3265_6" d="M1605.886,837.921c2.2-1.111,18.7-4.439,19.07-2.218s4.034,5.55,5.867,6.657-.733,2.589,1.1,4.807,4.4,4.439,8.068,4.439,10.857,6.644,13.426,10.344,12.528-4.338,18.4-6.188,17.689-3.788,18.422-3.416,6.968,10.725,9.169,12.207,6.235,9.246,5.5,10.725,1.1,3.7-.733,5.179a77.212,77.212,0,0,1-12.1,6.657c-2.2.739-3.3,4.439-1.469,5.918s1.833,5.547,1.1,6.657-7.7,2.961-6.6,5.55,5.135,8.136,4.766,11.1-.368,10.357-2.2,12.207-11,7.768-12.47,10.357-3.666,6.289-3.666,9.986-4.034,8.878-6.968,12.207-11,11.836-11,13.314-4.766,1.85-5.867,7.028c-.139.648.506-.655-.766-4.2-.317-.884-4.355-3.94-9.911-7.589-5.071-3.332-9.219-.527-18.064-2.778-2.758-.7-3.322-2.555-4.254-3.345s-2.734-1.637-2.961-2.414c-.925-3.14-1.566-10.853-4.115-12.97-1.039-.864-1.88-2.677-2.778-3.578s-1.978-2.133-2.758-3.082-1.377-2.556-2.059-3.575-1.438-2.346-2.177-3.369c-3.119-4.291-3.9-5.813-3.848-6.671a73.542,73.542,0,0,0-.1-8.207c-.078-2.724,2.258-4.078,1-8.288-2.528-8.412-13.7-15.927-15.762-25.173-.928-4.152-1.482-11.495-4.125-16.855s-7.379-8.74-8.595-13.044c-2.427-8.612,20.667,2.309,20.782-4.649.118-7.2,6.448-9.827,9.044-13.561l3.589-2.846c1.036.206,3.15,2.066,3.879,2.316a9.023,9.023,0,0,0,2.181.365Z" transform="translate(-1038.355 -553.887)" fill="#f2f2f2" stroke="#e1e1e1" stroke-miterlimit="2.613" stroke-width="1.24" fill-rule="evenodd"/>
          <path id="path3267_7" d="M1536.078,1137.976c-1.1,5.179.368,14.8.733,18.493s-.368,14.054-2.569,16.643-4.4,7.028-8.8,6.657-5.135-1.479-9.9,1.85-11,8.136-13.935,9.618-6.235,2.589-5.5,9.246,4.767,8.136,10.269,14.053,9.9,11.836,9.9,15.536,1.469,8.507-.733,9.986-5.5,1.111-11,2.961a60.181,60.181,0,0,1-15.768,2.957c-3.3,0-7.234-4.892-7.234-4.892l2.508-4.709c1.2-2.248.1-4.385-.172-6.718s.429-5.131-.064-8.716c-.993-7.19.989-6.383-2.086-9.408-3.126-3.075-6.681-2.117-7.879-5.246s-.814-9.081-4.375-15.7-9.719-12.187-16.444-18.04c-1.84-1.6-4.2-5.094-5.648-6.961s-4.76-6.8-6.316-8.193-3.4.26-4.773-.52-.878-1.242-1.225-2.066c-.979-2.326-4.051-7.305-7.12-7.727-2.626-.361-5.637,1.067-8.824,1.867a37.713,37.713,0,0,1-9.068.962,14.21,14.21,0,0,1-11.181-6.252c-.76-1.333-1.708-6.921-.456-9.476s-.047-5.7,1.914-8.629,6.427.263,7.795-2.181,3.062-8.814,2.529-9.925c-2.137-4.443-3.376-5.081-3.6-6.61-.449-3.058,1.009-7.7-3.379-9.415-6.11-2.383-1.472-7.319.344-7.957,4.827-1.7,3.565-4.7,8.932-6.09,2.161-.56,6.688,1,11.181.128,3.774-.729,10.465-2.957,12.615-.581,2.738,3.028,6.694,7.8,10.114,9.142s6.293-.753,9.908.723c1.809.736.969-7.626,1.857-10.63.567-1.924.56-7.488,2.309-8.547,2.046-1.236,5.05-2.637,6.91-1.735s6.765,3.345,8.618,4.28l5.9.453.017,6.589c-.233,4.034,4.19,7.8,6.3,12.129s3.622,3.9,5.607,7.4c.993,1.745,2.671,2.569,3.744,4.979s1.728,10.215,2.572,10.7c3.386,1.941,3.545,4.048,6.569,4.946a35.232,35.232,0,0,0,10.8,1.128,14.939,14.939,0,0,1,8.733,2.579c2.137,1.425,5.32,4.22,6.833,5.307a5.863,5.863,0,0,1,2.552,5.621Z" transform="translate(-926.782 -710.632)" fill="#f2f2f2" stroke="#e1e1e1" stroke-miterlimit="2.613" stroke-width="1.24" fill-rule="evenodd"/>
          <path id="path3269_8" d="M1468.636,1384.871s-1.941,3.929-3.41,6.151-5.331,7-8.629,6.262-7.9-9.986-10.1-7.768-5.594,4.341-3.923,6c2.005,1.992,5.783,4.379,5.047,6.971s-.368,6.289-2.566,5.178-6.627-5.489-11.761-6.971c-2.566-.739-4.351-.071-6.333.6s-4.166,1.364-5.817,3.4c-.1.128-1.232.176-.577-.476,2.063-2.056.209-3.514-1-4.929-1.232-1.445-2.039-5.03-2.819-5.172-3.376-.621-3.656-3.636-4.507-5.925-1.688-4.537-4.652,1.651-8.531,1.32-4.618-.392-12.848,1.809-15.4-3.328-1.171-2.36-1.323-3.7-2.768-6.036s-5.205-5.648-5.371-8.865c-.331-6.434-.334-9.483,4.524-11.832,1.759-.851,1.317-1.691.932-4.352-.317-2.2-.233-2.839-.959-3.406-2.674-2.09-6.6,2.623-8.46-.084-2.056-2.988-1.485-4.193-1.56-4.838-.294-2.576,1.465-5.567,3.325-10.117s11.11-4.53,13.871-9.375-3.713-12.467-2.525-16.515c1.259-4.284,5.016-11.6,5.844-11.977,1.654-.766,6.873-.631,11.437-1.857,1.154-.311,4.868-1.789,6.124-1.293a21.625,21.625,0,0,1,4.28,2.785c1.249.972,2.633,5.749,3.771,6.866s4.345-.26,5.263.672c3.673,3.73,6.694,9.1,10.479,13.878s9.823,7.977,13.891,13.334c2.036,2.68,5.628,8.186,6.485,11.593a57.482,57.482,0,0,1,1.485,9.24c.358,3.541,8.6,3.859,9.145,6.951a114.62,114.62,0,0,1,1.128,12.845c.057,9.057-.027,11.063-.027,11.063Z" transform="translate(-911.425 -858.988)" fill="#f2f2f2" stroke="#e1e1e1" stroke-miterlimit="2.613" stroke-width="1.24" fill-rule="evenodd"/>
          <path id="path3178_9" d="M1308.427,1517.156c-3.3,4.068-9.169,11.836-9.9,14.054s-1.465,7.028-2.934,9.985-1.833,7.4-5.135,8.136-6.968,1.478-5.867,3.7-1.465,1.85,2.934,8.136,8.8,15.9,6.6,17.385-4.4,5.546-10.269,5.179-9.533-4.439-11.734-3.7-4.034,4.068-6.235,2.218-7.336-2.218-9.169-6.657-1.833-15.536-5.5-18.125-11.988-9.8-15.657-14.236a93.942,93.942,0,0,0-8.747-9.067c-3.339-2.974-6.444-5.054-7.342-5.989-2.036-2.117-3.72-1.117-10.128-.159-1.634.246.324-5.378,1.448-7.562s1.043-4.868.257-8.558c-.52-2.434-1.124-6.8.743-10.073s7.8-4.385,11.275-7.846c.76-.756-11.015-8.608-10.013-9.891.5-.641,3.059-5.06,5.894-3.369,4.628,2.761,6.519,2.7,9.216.75,1.3-.942.017-4.011,3.845-4.031s12.234,2.116,14.08.567-.1-2.873.1-4.443,2.019-5.162,3.946-6.272c3.852-2.218,4.581-1.614,7.859-1.938,1.637-.162,2.815-2.12,5.232-2.242s10.151-3.389,11.758-1.9c.8.742,1.137,3.642.965,6.3-.088,1.33-2.61,1.982-3.929,3.427s-1.438,3.686-1.691,5.361c-.506,3.349-.26,6.569,1.634,8.645a68.193,68.193,0,0,1,4.247,6.05c3.052,4.1,1.509,7.288,5.621,7.66,3.058.277,7.059.493,10.6.618s6.964-3.214,8.162-3.3c2.4-.166,2.36,4.389,3.609,6.262s3.784,1.07,4.216,3.7,3.2,3.5,3.15,5.584a4.241,4.241,0,0,1-.739,2.815,29.219,29.219,0,0,1-2.4,2.815Z" transform="translate(-801.526 -968.472)" fill="#f2f2f2" stroke="#e1e1e1" stroke-miterlimit="2.613" stroke-width="1.24" fill-rule="evenodd"/>
          <path id="path3180_10" d="M1029.8,1543.007c-2.2,2.218-10.85,11.636-14.148,12.747s-4.834,6.157-8.5,8.007-6.12,5.442-11.623,5.81c-2.751.186-4.6,1.644-6.515,2.224l-5.087,2.657c-.273-.024-.4-7.748-2.964-12.764-2.846-5.567-1.546-8.075-10.016-9.358a54.644,54.644,0,0,1-14.168-4.179c-5.449-2.464-13.483-1.36-15.093-3.571s-2.667-3.025-2.954-5.381-.685-8.021-.088-8.433-.236-4.929,1.441-6.022,6.748.344,8.544-1.431,5.34-2.454,7.228-4.355,4.328-4.365,6.566-6.617c4.473-4.5,7.68-6.819,11.525-10.489s4.345-7.373,6.053-8.439,6.526-2.083,9.922.024c3.16,1.961,3.852,4.895,7.893,6.12,2.022.615,5.411-.81,6.5-3.173,1.235-2.7.746-13.189,2.393-12.8.824.192,4.865-1,6.171.408s-.122,5.418,1.262,7.17,2.7,3.453,3.757,4.672,2.5.182,5.253.662c1.445.25,2.056,2.819,6.063,3.4,1.057.152,4.9-.976,5.57.358,1.35,2.673,8.919,6.289,8.922,8.382s-5.877,3.9-9.463,6.228c-1.765,1.144-2.9,5.732-2.687,7.2a43.963,43.963,0,0,1,.793,8.868,22.49,22.49,0,0,1-1.965,8.1,5.553,5.553,0,0,0-.564,3.98Z" transform="translate(-622.416 -983.359)" fill="#f2f2f2" stroke="#e1e1e1" stroke-miterlimit="2.613" stroke-width="1.24" fill-rule="evenodd"/>
          <path id="path3373_11" d="M675.041,1749.628c.523,4.449,1.1,10.047.084,13.26a3.23,3.23,0,0,0,.6,2.974l1.178,2.275-2.68,3.687a39.711,39.711,0,0,0-7.94,20.775c-.733,6.657.368,12.575-1.465,15.164s-4.767,7.4-3.3,11.836,4.767,11.836,6.6,15.9,3.3,13.314,1.465,15.164-7.336,8.135-9.533,15.9-4.767,16.275-7.7,17.385-9.537,5.918-12.835,6.657-16.136-16.643-17.237-14.8-2.2,9.618-9.169,10.725-9.169-3.7-11.37-2.961.368-2.218-3.3-5.546-5.5-3.328-4.034-5.178-7.7-14.8-4.4-18.493,9.533-9.986,12.1-11.836,6.235-12.946,4.4-15.164-5.135-11.1-5.135-14.8-4.4-16.643-4.767-19.6-6.968-13.686-10.269-17.753-2.569-11.836-1.1-14.054,6.468-4.939,7.569-6.417a7.444,7.444,0,0,1,4.524-2.093c1.732-.041,2.95,1.2,3.761-.587.881-1.944-1.246-2.62-1.661-3.609s.885-2.289,4.014-5.476c4.237-4.314,15.248-5.661,20.785-8.686,3.629-1.982,8.034,5.668,16.224,2.859,4.436-1.519,9.614,7.859,21.413.554,3.582-2.218,9.294-.334,11.464,2.822s1.566,7.771,1.725,9.1Z" transform="translate(-387.696 -1149.402)" fill="#f2f2f2" stroke="#e1e1e1" stroke-miterlimit="2.613" stroke-width="1.24" fill-rule="evenodd"/>
          <path id="path3349_12" d="M733.584,333.579a63.481,63.481,0,0,1,7.93,5.57,7.445,7.445,0,0,0,7.285,1.661c4-1.188,13.608-6.043,15.441-4.2.918.925.53,3.329,2.38,5.084,1.593,1.516.962,4.287.881,5.465-.314,4.5-1.509.938-1.141,8.47.4,8.143-.739,5.9,3.359,10.708,3.129,3.669,8.223,5.138,8.18,10.141-.071,8.558,3.369,6.127,1.614,13.486-1.249,5.243-1.529,5-4.338,4.392-10.489-2.255-10.043-3.575-15.117-5.047-4.736-1.374-.493-10.215-9.24-11.3-3.3-.409,1.556-5.57-3.234-4.854-7.508,1.124-10.819-3.528-14.452-6.073-9.027-6.326-.908-4.456-.533-9.7.182-2.582-10.479-7.8-12.767-9.02-4.9-2.61-10.5-7.109-15.417-8.882-7.16-2.583-10.124-5.145-10.124-7.734a40.619,40.619,0,0,1,1.36-8.527l.982-4.382,2.481.479c1.715.334,7.332.712,9.263,3.389,1.009,1.4,2.458,2.441,3.207,3.994s.324,2.957,1.6,4.365c.841.925,6.9-.844,10.1-1.739s5.027-.26,5.246-.027a22.467,22.467,0,0,0,5.043,4.274Z" transform="translate(-460.759 -212.003)" fill="#f2f2f2" stroke="#e1e1e1" stroke-miterlimit="2.613" stroke-width="1.24" fill-rule="evenodd"/>
          <path id="path3375_13" d="M445.369,600.74c1.279,1.421,2.174,4.139,3.042,5.509s.523,2.124,2.616,3.487a10.5,10.5,0,0,1,2.9,2.782,8.513,8.513,0,0,0,1.992,2.461c1.168.81,1.593,1.205,1.779,3.342a35.492,35.492,0,0,1-.277,7.015c-.29,2.353-.689,4.537-.949,5.992s-.378,2.184-.1,1.63-.253,6.134-1.59,8.642-4.422.834-4.4,4.534,4.1,5.651,5.479,8.953-.7,11.316-.992,12.906c-.405,2.194-9.216,3.055-9.881,10.89-1.188,14.02-9.729.874-16.923,11.427-.834,1.222-4.061,2.667-7.693,2.836s-8.612-.186-11.069-.317c-1.884-.1-13.645,1.833-23.361.311-1.712-.27-6.924,2.755-11.3,2.7s-7.9-3.187-12.987-8.274c-5.023-5.023-14.59-10.846-14.273-16.531.446-8.034-3.109-16.2-3.7-20.852-.351-2.792.165-10.732.118-18.513-.034-5.844-4.942-11.552-.54-12.291s11.37-.739,16.5-2.961,7.7-4.068,13.567-4.068,11.734-.371,15.768-2.961,8.99-3.207,13.024-7.275l5.58-6.758,4.031-.284c3.865-.27,9.024-3.632,13.716-4.254,3.923-.52,5.813-.915,12.467.864,6.093,1.631,6.434,7.95,7.43,9.054Z" transform="translate(-227.026 -391.875)" fill="#f2f2f2" stroke="#e1e1e1" stroke-miterlimit="2.613" stroke-width="1.24" fill-rule="evenodd"/>
          <path id="path3377_14" d="M587.5,445.664c1.023,3.541,3.312,8.909,3.649,11.751.169,1.421,1.421,3.227.557,2.913-1.82-.662-2.755,1.32-2.866,2.4-.223,2.157.125,6.708-.54,8.2s-1.516-.074-2.495.766c-3.021,2.593-6.5-1.728-8.456-2.981-4.763-3.052-3.413-8.369-7.079-11.7a14.861,14.861,0,0,0-10.127-3.835c-1.86,0-6.249-.78-8.224.057s-1.536,3.295-1.766,6.65c-.6,8.733-3.6.611-6.93-1.836-4.23-3.109-3.416-5.226-5.165-7.508-2.653-3.467-2.542-6.576-4.193-8.24-3.3-3.329-7.943-3.754-13.125-4.119s-15.731,5.388-18.712,5.016l-2.572-.321.895-2.751c.054-1.057-1.074-2.12-1.374-2.539-1.2-1.671-2.63-3.069-3.892-4.594-2.525-3.045-4.892-5.357-5.992-5.172-2.2.371-9.169-4.807-9.169-9.246s-1.1-9.246,1.1-11.468,1.833-5.918,6.235-8.136,2.934-6.657,8.8-7.028,10.269,4.807,13.935,2.218,8.8-7.4,8.8-10.725-.368-8.878,3.666-10.725,9.169-2.589,9.169,0,1.833,7.4,4.4,7.028,2.569-4.807,6.6-8.136,9.9-4.439,9.9-7.028c0-.162-.827-4.162-.581-3.757.125.2,4.048,4.652,8.565,5.661,3.4.76,9.6,5.266,12.048,6.519,1.9.976,8.122,4.935,10.462,6.009,2.4,1.1,6.468,3.477,7.322,5.813.608,1.664-2.093,3.734-3.21,4.689-.847.722-1.043,2.262,4.655,6.34,2.046,1.462,7.072,5.884,12.936,5.016,2.2-.327,3.244.577,3.069,1.013-.722,1.813-.675,2.785.067,3.44s2.177.989,4.23,1.519c2.15.557-.7,8.153.054,9.955s.024,10.033-1.927,10.857c-4.362,1.85-10,2.9-14.611,3.565-1.168.169-7.788.385-8.828,2.37-.314.6-.145,9.138.7,12.072Z" transform="translate(-318.574 -239.794)" fill="#f2f2f2" stroke="#e1e1e1" stroke-miterlimit="2.613" stroke-width="1.24" fill-rule="evenodd"/>
          <path id="path3345_15" d="M648.3,34.951s8.436.739,13.567-.371,11.37-1.85,15.036-4.068,11-11.468,11-11.468,7.336-6.657,9.169-7.4,13.567-8.136,13.567-8.136,14.668-2.589,17.6,0,11.37,12.575,15.4,15.9,8.068,7.768,6.968,9.246-1.833,2.589-5.5,2.218-6.968-1.479-6.968.371.368,5.178,1.833,7.4,2.933,8.136,1.1,8.136-5.135,0-5.135,2.589-.368,2.961,3.3,3.7a53.722,53.722,0,0,1,11.734,4.068c1.833,1.111,10.269,11.1,13.2,11.836s12.47,1.85,13.2,4.068,2.39,5.2,2.495,6.657a19.145,19.145,0,0,0,1.6,6.65,54.808,54.808,0,0,1,2.775,8.105c.732,2.589,1.9,3.1.935,6.85-1.887,7.3-8.328,8.1-7.96,12.906s-6.127,1.911-8.52,3.923c-3.271,2.755-4.618,7.339-8.922,9.739-2.566,1.428-10.178-.071-11.886,1.418-4.814,4.2.571,6.32-3.9,5.9-9.932-.932-13.726-4.091-13.726-7.42s-9.061,1.094-13.473,2.755c-8.541,3.214-9.574-1.644-13.486-3.98-10.219-6.1-6.823-5.688-9.125-6.88-1.631-.844-2.758-.932-7.693.8-7.076,2.474-8.531,1.462-8.531-1.128s-4.841-8.061-8.193-8.689l-7.366-1.377,2.026-8.119c.935-3.744,5.135-9.246,7.336-11.468S671.4,81.176,667,81.547s-5.867,3.329-11,0-2.934-7.4-1.465-9.246-.368-.739-2.2-6.657-4.4-7.768-6.6-10.357-4.767-6.289-2.2-8.136,4.4-7.4,4.4-7.4l.368-4.807Z" transform="translate(-426.428 -2.361)" fill="#f2f2f2" stroke="#e1e1e1" stroke-miterlimit="2.613" stroke-width="1.24" fill-rule="evenodd"/>
          <path id="path3171_16" d="M265.561,1253.015s-2.366-2.532-10.067-4.01-11.954-3.552-14.523-7.619-9.9-5.844-12.1-6.583a9,9,0,0,1-5.5-5.992c-.733-2.957-2.934-7.028-4.767-6.289s-6.529,5.253-9.83,4.513-8.288-3.477-10.853-2.738-8.507,2.218-11.809.739-5.648-5.847-5.28-9.543-2.934-2.218-1.833-7.028,5.5-10.725.368-13.686-12.322-8.061-10.853-11.022,5.354-5.624,5.354-9.321-1.1-10.725-4.767-12.946-7.407-2.586-6.306-5.914,3.372-3.7.439-5.921-4.358-5.243-3.626-7.461c.091-.277,4.53-.553,8.365.925,2.225.858,4.79,2.542,8.521,3.3s8.618.584,11.957,1.847c3.5,1.323,9.949,5.243,16.69,5.226,3.16-.007,6.019,2.1,9.091,3.193a27.921,27.921,0,0,0,8.6,1.242c5.887.172-9.942-8.426,3.008-13.54a60.148,60.148,0,0,0,5.86-2.738c5.982-3.332,6.468-5.2,7.6-7.525,1.094-2.255.834-4.311,1.63-5.884s3.234-2.221,5.016-4.611c.891-1.2.888-5.685,2.417-6.934s4.885-.733,6.6-1.924,3.416-3.943,4.868-4.963-.429-4.571-3.521-6.481c-3.534-2.184,5.037,1.954,17.1,2.744,6.076.4,7.2,2.913,9.918,4.621s9.192,14.587,11.653,17.22c1.232,1.316-6.607,4.024-9.2,15.89s2.66,17.635-1.3,32.924c-1.978,7.646-3.43,10.7-1.364,17.915.517,1.806-.054,3.872.81,6.006s.118,4.341,1.158,6.431,5.165,4.054,6.195,5.712a23.172,23.172,0,0,0,2.849,3.859c4.2,4.24,8.406,4.99,14.263,6.515s13.372,3.835,13.729,4.22c.179.192-1.985,3.946-5.037,5.418s-6.988.662-7.67,1.124c-1.36.928-7.66-.938-10.262.361-5.2,2.6,2.356,3.842-6.063,11.984-1.425,1.377-4.486,2.215-6.417,4.311s-3.551,4.939-5.567,6.846-1.1,2.471-2.775,3.285-5.111,2.38-6.016,1.188l-6.752-8.892Z" transform="translate(-106.449 -731.243)" fill="#f2f2f2" stroke="#e1e1e1" stroke-miterlimit="2.613" stroke-width="1.24" fill-rule="evenodd"/>
          <path id="path3173_17" d="M154.1,1056.717c-2.738,1.779-11.326-.118-15-2.336s-6.87-.263-15.178-3.875c-4.77-2.073-9.959-4.409-15.147-3.967-3.666.314-10.08-3.46-12.339-4.061-2.954-.787-7.791.56-9.624-3.879a99.911,99.911,0,0,1-3.352-10.016s.186-1.573-10.205-7.015c-12.568-6.583-19.448-12.47-19.448-14.688s6.5-9.537,4.3-12.865S53.658,986.5,54.026,982.8a24.2,24.2,0,0,1,2.3-9.179c1.468-2.957,5.55-4.608,5.55-7.2s-2.269-5.189,1.317-7.8l4.551-3.312a7.1,7.1,0,0,0,2.13-1.657l1.246-2.343c.213-.4.726,1.161,1.418,1.766.571.722,3.369,3.784,9.689,3.943,5.952.148,10.087-2.049,12.794-.327,1.549.986,3.339,1.651,4.149,2.522a2.618,2.618,0,0,1,.219,2.967c-.837,2.042-3.99,4.27-3.511,5.763.9,2.8,3.089,5.128,5.594,7.7a18.469,18.469,0,0,0,6.444,4.706c2.994,1.134,6.252.338,10.124.858a19,19,0,0,1,5.752,2.65c2.542,1.61,6.006.054,7.883-.78,3-1.33,6.195-5.742,9.56-5.668s8.575,3.828,9.986,5.361a13.025,13.025,0,0,1,1.9,5.209c.307,1.944-.169,3.609.074,5.118s.925,1.6,5.283,2.262c.807.125.851,1.9.462,2.906a10.46,10.46,0,0,0-.82,3.362c-.047,1.151-.01,2.394,1.192,2.812,2.258.787,5.732-.071,7.68-.192,9.955-.611,15.265-2.5,18.658-1.239s4.459,3.558,4.723,4.9c.172.878-2.407,4.058-3.97,5.648s-5.59,1.185-7.9,3.082-.658,5.074-2.741,6.863a31.281,31.281,0,0,0-4.868,5.114c-.874,1.29-1.317,6.245-3.406,8.311s-5.641,5.513-7.734,5.523c-2.67.01-1.59,1.168-6.877,3.528-2.451,1.094-2.188,5.1-1.644,5.823a40,40,0,0,1,2.393,3.437c.493.834.662,1.337.469,1.462Z" transform="translate(-36.493 -630.923)" fill="#f2f2f2" stroke="#e1e1e1" stroke-miterlimit="2.613" stroke-width="1.24" fill-rule="evenodd"/>
          <path id="path3175_18" d="M162.165,751.282c1.29.26,6.306-.024,7.072,1.394l.024,6.239c-.479,6.417-2.842,12.7.354,21.936A22.772,22.772,0,0,1,171,791.177c-.159,2.971.2,6.313.287,5.388.182-1.85-1.708.162,4.456,5.418,5.438,4.638,10.5,17.017,9.591,19.313-3.194,8.078-27.753,1.307-33.606.371-6.306-1.006-26.655,4.989-27.533.466-.628-3.241,4.051-8.7-3.089-8.446-3.207.111-1.033-4.24-1.951-7.265s-2.721-6.154-4.638-7.113c-3.784-1.891-6.255-3.4-8.818-2.539s-5.216,4.092-6.765,4.908c-5.536,2.92-8.048,2.069-10.982-.148s-12.666-1.05-14.6-2.363c-5.776-3.913-9.432-7.44-11.265-11.879-.918-2.218,4.733-5.4,3.845-8.034s-7.147-4.054-7.147-4.054-9.361,1.62-14.57.186-6.529-5.02-7.629-6.313c-2.2-2.589-5.135-7.4-11.37-9.986s-2.566-9.986-4.034-10.357-11.37-2.589-14.3-7.768-4.767-11.1-4.034-15.535,5.135-9.246,6.6-10.357,9.9-5.55,11-7.768,4.767-2.957,6.6-2.589,7.336,2.218,9.533,2.589,7.336,8.507,11.734,9.246,10.634,4.807,13.567,4.439,11.734-.371,12.1-2.218.368-10.725-2.569-12.575-1.1-5.178,1.1-9.986,4.034-5.918,9.533-7.4,11-1.85,12.1-4.439,4.986-5.4,10.853-4.659,7.393-.976,11.792-1.715c.273-.047,2.4,9.591,2.488,10.765.054.692.108,8.8-.007,9.992-.334,3.551.2,11.414,1.033,13.513s2.417,16.255,2.944,18.648c.979,4.456,3.058,4.233,8.048,9.408,1.779,1.846,5.172,4.78,7.16,6.451,2.137,1.8,6.779,8.48,13.746,6.819,6.8-1.624,8.034-2.7,9.938-2.316Z" transform="translate(-2.624 -449.917)" fill="#f2f2f2" stroke="#e1e1e1" stroke-miterlimit="2.613" stroke-width="1.24" fill-rule="evenodd"/>
          <path id="path3182_19" d="M690.733,1542.542l-4.915,2.843-2.393.213c-4.4.392-10.634.739-13.2,1.479s-16.869,11.1-21.636,12.207-16.926,7.251-19.438,7.4a31.745,31.745,0,0,0-6.357,1c-2.6.76-4.2,2.957-4.7,2.124l-1.067-1.8c-1.674-2.819.716-4.078.25-9.051s-1.131-8.764-1.387-12.126-3.339-6.323-4.878-6.978c-7.221-3.075-9.51,3.035-17.831,2.714-.793-.03-6.823-2.677-10.1-3.359-3.21-.668-3.42,1.364-6.252.739-5.665-1.246-7.893-3.767-9.739-3.629-3.524.267-4.081,1.347-6.455,2.363s-6.184,1.016-7.778,1.806c-2.052,1.016-7.157,2.92-7.839,4.233s-4.213,4.659-4.6,5.54,3.045,4.118,2.424,4.551-1.6-.26-2.988-.3c-5.236-.145-15.235,10.681-13.77,8.46s-2.934-7.029-1.833-8.507,5.5-6.289,2.934-9.246-5.867-14.425-9.533-19.232-4.034-8.507-4.767-12.575-.368-9.246-3.666-12.575-13.706-18.381-13.706-18.381,3.842-.385,5.148-1.276,3.352-3.562,6.316-7.592c4.648-6.316,5.908-4.723,9.537-7.879,3.416-2.974,3.5-4.324,3.572-7.764.084-4.2,3.916-4.233,11.434-3.592,2.228.193,5.371-1.364,7.8-1.127s3.909-.409,6.178.064,3.956,4.166,5.655,4.416,6.542.675,6.542-.166c0-1.694,4.824-5.735,3.946-10.431-.749-4.011,3.9-7.5,2.978-7.133-.057.024,7.72-3.615,8.237-3.261s3.2,8.19,4.21,8.831,4.905-7.278,4.767-8.723c-.176-1.84,5.371-2.015,6.8-1.131s5.158,4.233,6.768,5.226,2.7,6.249,4.47,7.332,1.809,3.619,3.72,4.787,2.485,1.172,4.52,2.41.111,6.529,2.248,7.832,5.928,1.83,8.153,3.18,4.483,4.132,6.772,5.523,7.616.793,9.949,2.215a16.421,16.421,0,0,1,4.76,4.331c1.836,2.124,1.82,2.13,3.568,4.284,2.731,3.372,4.281,6.66,3.079,9.148a11.032,11.032,0,0,0-.945,4.432c-.122,1.047-.469,1.681-.547,3.042-.209,3.724-.456,1.695-.024,5.057.469,3.643.253,3.916,1.661,6.093,1.55,2.4,2.562,3.6,5.273,3.848,3.112.294,8.865.628,10.877,1.88s5.425,1.907,7.572,2.508c2.268.635,5.273,1.124,8,1.789,2,.486,5.081,1.134,6.168,2.66,1.576,2.214.847,2.424,1.61,3.9a23.512,23.512,0,0,1,2.289,5.236l2.154,10.124Z" transform="translate(-329.09 -951.482)" fill="#f2f2f2" stroke="#e1e1e1" stroke-miterlimit="2.613" stroke-width="1.24" fill-rule="evenodd"/>
          <path id="path3271_20" d="M1049.148,232.939c-1.469,0,12.467-.371,14.3,1.111s8.8,6.289,9.169,8.136,4.4,5.178,4.4,5.178a11.577,11.577,0,0,0,6.6-.739c3.666-1.479,7.7-3.7,11.734-3.7s11.734,2.589,13.2,5.918,6.235,15.164,6.235,16.643,5.5,17.014,5.867,20.714,3.3,12.207,5.135,14.053,2.934,5.546,4.766,4.068,6.968-8.136,10.269-9.986,4.034-1.111,6.235.739,4.034,5.918,4.767,8.507,2.569,5.918,1.1,13.314-.368,7.768,0,12.575,2.2,9.986,7.335,15.535,7.336,8.136,7.336,8.136,11.734-1.85,14.668-.739,10.634,8.507,14.668,11.464,4.4,5.918,11.734,4.068,13.567-1.85,15.768,0,2.569,5.918,1.469,10.725-3.3,9.246-3.3,12.575,1.465,4.439.368,9.986-3.3,9.618-4.034,13.685a64.941,64.941,0,0,1-2.538,8.169c-.513,1.236-1.628.061-3.086.132-3.6.176-.547-4.844-2.768-7s-6.012-2.383-9.138-5.452-5.857.226-9.476-6.549c-1.84-3.443-5.962-6.012-7.224-7.1-4.6-3.977-10.107.172-13.4,3.852-3.143,3.518-11.707,10.62-17.747,12.153-4.7,1.2-5.168.645-9.675,2.488s-7.086.388-8.966-1.847-5.948-7.69-8.288-7.474-2.14.679-3.359,4.594c-.814,2.613-3.578,5.047-5.347,7.41-1.549,2.066-3.487-4.885-5.854-7.7s-3.113-11.14-5.5-15.613c-2.3-4.311-4.348-6.222-8.9-9.5-4.564-3.288-6.333-10-6.809-15.178-.581-6.33-.27-12.578-2.805-15.6s-1.894-4.966-1.664-9.334,1.053-5.1,3.423-9.422c1.472-2.687,2.3-7.278,2.468-9.888a17.113,17.113,0,0,0-.554-7.012c-1.867-5.087-3.8-9.152-4.564-12.261-1.766-7.2-7.721-10.809-10.978-16.741s-3.842-12.4-7.69-16.947-8.26-9.017-10.384-13.28-1.972-7.265-3.578-10.377c-3.3-6.39-5.223-16.477-5.4-16.477Z" transform="translate(-695.752 -155.073)" fill="#f2f2f2" stroke="#e1e1e1" stroke-miterlimit="2.613" stroke-width="1.24" fill-rule="evenodd"/>
          <path id="path3192_21" d="M1336.409,742.1c.051,1.057-1.4.442,1.485,4.939,1.523,2.366,3.109,5.276,6.026,3.548,3.366-1.995,14.465-2.053,17.767-2.053s15.917,3.994,18.135,5.482l2.279,1.529-4.119,3.565c-1.175,1.266-2.778,2.647-4.973,4.962a28.622,28.622,0,0,0-2.451,3.616c-.459.766-1.107,4.844-1.786,5.894s-2.741.938-3.534,1.03c-3.579.405-14.635-3.339-16.275-.3s8.25,13.962,9.256,16.849a26.954,26.954,0,0,1,1.867,7.579c.358,6.725,1.881,11.886,6.046,16.957,1.475,1.8,5.833,6.7,8.477,10.519a18.129,18.129,0,0,1,2.913,7.059c.142,1.874.634,1.563-.284,3.73l-1.161,3.278-4.365-.067c-1.465.442-5.53-2.724-7.873-3.643-1.171-.459-2.751-1.3-3.524-1.249s-.584-.628-1.806.061l-4.425,2.495.412-6.958c.081-1.391-1.719-3.261-2.735-6.272s-1.279-7.13-2.157-8.534c-1.755-2.809-2.461-2.208-4.767-2.427-3.585-.341-8.75.675-9.459.712-3.4.176-4.507.132-7.582.341-2.512.169-4.6-1.134-6.65-.422a5,5,0,0,0-3.268,3.592c-.365,2.019-1.553,7.623-2.326,10.749s-.786,3.693-1.793,4.868l-4.875-.851L1302,826.588c-4.692-4.632-9.321-6.785-12.44-5.462-4.635,1.968-4.969-5.975-12.561-2.407-5.165,2.427,1.036,21.224-2.086,22.564s-5.6,3.754-8.959,6.546-8.007-1.87-11.15-1.441c-4.081.554-4.928-12.882-7-10.921s-3.693-.405-4.23-.733c-2.143-1.306-3.349-3.943-1.262-16.761.229-1.418,2.633-5.074,3.322-8.477s-.321-6.644-.186-9.547c.067-1.452-4.466-10.668-6.266-15.265s-1.637-16.2-1.171-24.444c.351-6.191,7.288-5.31,6.792-10.077-.53-5.087-1.036-13.517.064-14.938.952-1.232,2.053-2.886,3.5-4.9.726-1.006.54-2.741,1.094-3.724a2.91,2.91,0,0,1,2.532-1.2c1.367.017,3.319,2.15,4.77,4.065s2.41,3.605,4.541,4.993c3.274,2.133,6.275,1.1,9.115-.115a29.133,29.133,0,0,1,5.486-1.313c1.7-.368,3.541-.982,4.972-1.333,2.39-.587,8.447-5.371,10.641-7.1s8.6-9.01,12.008-9.658c1.7-.324,5.239.314,6.411,1.317,1.087.928,2.029,2.694,4.639,3.967,1.242.6,1.833,3.68,2.96,4.52s1.539,1.752,2.674,2.653,3.43.925,4.7,1.725,2.63,2.387,4.152,2.92a24.644,24.644,0,0,1,6.171,3.116c1.857,1.212,1.127,6.026,1.171,6.937Z" transform="translate(-820.728 -474.333)" fill="#f2f2f2" stroke="#e1e1e1" stroke-miterlimit="2.613" stroke-width="1.24" fill-rule="evenodd"/>
          <path id="path3248_22" d="M936.356,603.834s4.53.793,6.336,4.044-3.406,5.678.567,7.484,8.267,4.365,8.99,7.255,2.721,9.635,8.112,10.546c5.026.847,9.3,1.3,10.026-1.225s3.943-7.349,7.555-9.878,10.755-2.012,11.478-5.621-1.013-6.367,1.516-9.256,7.68-5.951,5.513-7.758-5.293-9.415-2.4-11.582a91.319,91.319,0,0,1,7.471-5.911c3.589-2.373,8.851-4.922,9.408-7.251.692-2.9-3.048-8.048-7.744-10.938s-5.857-6.471-7.822-11.8c-2.248-6.1-1.273-19.306-4.162-21.473s-2.184-9.013-.763-12.666c2.437-6.262,9.132-14.746,2.269-17.635-3.43-1.445-11.734-1.215-16.2-.719s-5.108,1.263-6.552,3.247c-2.89,3.973-14.448,18.422-18.783,19.867s-10.836,3.612-11.92,7.585,1.084,11.2-1.084,14.81-6.5,7.224-9.03,5.057-7.7,2.282-11.555,3.9c-2.289.959-4.122,1.863-7.312,3.322a55,55,0,0,0-6.779,3.342c-1.229.932.989,2.356.986,3.291-.007,2.34,7.812,3.156,9.256,6.407s-4.4,5.786-3.315,8.676c.54,1.445-2.09,2.38-1.472,3.95s4.48,3.774,4.659,5.4c.361,3.251-3.973,3.973-3.612,6.863s4.334,5.418,6.141,4.7,9.2-6.306,11.731-4.139,7.775,8.112,8.5,8.112Z" transform="translate(-599.086 -331.393)" fill="#f2f2f2" stroke="#e1e1e1" stroke-miterlimit="2.613" stroke-width="1.24" fill-rule="evenodd"/>
          <path id="path3179_23" d="M1038.795,770.289s-.361,6.39-2.12,8.146a7.175,7.175,0,0,0-1.755,7.028c.753,2.508,3.011,8.784,3.264,12.048s-.753,7.781,3.261,6.022,12.8-2.761,15.059-4.517,3.264-2.009,7.278-9.034,8.784-8.534,10.039-7.278,4.267,8.031,7.528,8.031,13.051.5,15.059-1.256,6.792-1.425,7.153-5.526c.233-2.64-.274-6.667-.27-11.559,0-4.331.165-7.2.523-8.429.624-2.127,5.769-3.379,6.387-7.018.155-.918.081-6.792-.5-8.136s.986-5.216.263-6.755-1.728,3.379-2.464,1.911-4.193-6.947-4.821-8.075c-2.508-4.517-3.16-8.767-4.146-11.667-.26-.763-3.379,2.89-5.138,3.642s-8.288,6.144-10.293,7.4-3.885,3.133-3.133,6.4a15.4,15.4,0,0,0,2.073,4.9c.942,1.384,2.566,2.515,1.688,4.149-1.755,3.261-6.147,5.391-6.65,7.4s.25,6.272-.753,7.781-2.39,2.387-9.027,4.4c-4.3,1.3-7.666,6.174-9.78,10.529-1.276,2.63-2.154,2.026-6.167,1.776s-4.9.5-7.906-2.761-4.405-9.537-4.655-9.537Z" transform="translate(-686.206 -480.469)" fill="#f2f2f2" stroke="#e1e1e1" stroke-miterlimit="2.613" stroke-width="1.24" fill-rule="evenodd"/>
          <path id="path3181_24" d="M662.558,635.052s.587,7.4-1,8.764.824,2.451-.088,7.038c-.489,2.461-.489,5.742-1.077,9.03s-.462,6.721-.7,7.771c-.955,4.226-4.264,3.359-5.4,5.722-.5,1.043,1.36,6.039,2.724,6.266s3.632,5.816,3.406,7.406-.091,6.718-2.586,9.9-6.13,3.859-7.265,5.678c-.567.908-1.371,1.661-1.256,2.66a3.8,3.8,0,0,0,2.393,2.7c2.5.908,6.586,4.541,7.039,6.357s2.5,9.992,4.54,10.9,5.449,6.13,7.947,2.5,4.77-9.992,8.173-6.356a41.377,41.377,0,0,1,3.44,4.486c1.013,1.337,1.344,1.161,2.917,3.46,1.782,2.606.456,6.812,1.364,8.629s3.994,5.779,5.874,8.7c1.749,2.714,2.14,2.367,4.706,6.917,2.582,4.581,6.907,7.771,8.949,6.637s3.18-8.173,1.59-10.9,1.59-2.042,2.042-4.541-.682-8.629,1.364-10.671,7.494.456,10.445-.456,4.77-1.59,4.54-4.088a42.517,42.517,0,0,0-1.59-7.947c-2.38-8.041,9.456-11.64,14.759-7.039,2.917,2.528,6.357,6.13,10.445,3.18s4.088-8.629,9.537-9.992,12.99-1.546,13.672-4.27,2.68-7.221-.952-9.267c-1.816-1.023-3.565-.8-4.9-1.651s-2.255-2.755-3.5-3.663-3.042-3.794-5.145-4.642-4.507.348-6.438,1.6c-3.859,2.5-2.724,3.271-5.9,2.363s-5.722-3.457-4.358-5.725,3.406-2.221,3.177-4.945c-.057-.682-.962-1.414-1.249-2.39s-2.954-2.336-3.261-3.45,1.34-2.12,1.225-3.21a4.59,4.59,0,0,1,.2-2.356c1.134-3.632,5.766-5.9,3.042-8.169-1.364-1.134-5.5-2.393-7.639-3.923-2.2-1.57-2.15-3.183-3.17-3.754-2.042-1.134-8.9-2.495-12.99-2.768-4.135-.277-3.221,1.087-6.171,1.408-1.668.182-2.238.837-3.808.2a13,13,0,0,1-3.5-2.015c-3.548-2.954-3.906-8.537-5.722-6.039s-.766,7.889-1.317,9.945c-.662,2.475-2.046-.121-3.163,1.033-1.583,1.637-3.97.739-5.786-1.077s-2.475-1.04-4.686-4.588c-1.107-1.776-2.329-5.31-3.8-7.795a9.057,9.057,0,0,0-5.179-3.784c-4.088-1.134-13.122-1.543-13.122-1.543l-2.772,1.772Z" transform="translate(-430.961 -420.294)" fill="#f2f2f2" stroke="#e1e1e1" stroke-miterlimit="2.613" stroke-width="1.24" fill-rule="evenodd"/>
          <path id="path3183_25" d="M840.921,854.2c-.422,1.505-1.654,1.9-.7,5.762,1.445,5.86,2.13,11.755-2.005,12.163a38.474,38.474,0,0,1-6.893-.148c-2.39-.29-4.1-.868-4.864.658-1.522,3.048.027,11.279-2.107,12.5-1.067.608-2.221,1.972-1.073,2.832,1.58,1.182-.257,3.514.2,5.192.915,3.352.132,5.992,3.177,7.818s8.227,6.4,7.315,9.142,3.048,4.571,3.963,9.753,0,15.239-1.522,19.505-3.656,8.534-1.522,10.057,7.923,5.182,11.275,6.093,14.935,1.522,16.457-.3,7.923-5.79,11.275-7.619,4.267-6.093,7.008-5.79,4.875,2.741,6.4.915.3-5.79,2.437-8.534,3.963-3.352,6.4-7.315,8.534-7.008,2.745-13.713-6.7-11.275-2.133-15.846,7.923-8.227,5.486-11.886c-1.219-1.83-2.687-1.323-3.7-3.943-.506-1.31-.138-3.781-.452-5.817s-1.313-3.632-1.516-4.719a38.541,38.541,0,0,0-2.005-7.768c-1.266-3.727,1.776-6.161,2.643-8.456,1.367-3.615,2.093-6.637-.084-7.845-2.147-1.192-3.413-2.383-5.307-3.1-2.934-1.111-3.015-1.583-3.015-1.583a49.539,49.539,0,0,1-8.956,3.109c-4.267.915-7.248-.344-11.562,6.86a20.692,20.692,0,0,1-4.416,4.942c-1.614,1.448-5.489-.25-7.673-2.785-5.283-6.137-14.546-2.707-15.269-.122Z" transform="translate(-545.886 -558.686)" fill="#f2f2f2" stroke="#e1e1e1" stroke-miterlimit="2.613" stroke-width="1.24" fill-rule="evenodd"/>
          <path id="path3185_26" d="M1035.585,945.969a13.2,13.2,0,0,1-2.7-7.44c.068-3.967,4.969-8.946,7.072-10.826,1.989-1.779,3.187-4.929.952-7.336s-5.705-2.444-.871-3.832c9.341-2.68,14.826-2.258,18.584-7.072,2.539-3.254,6.144-11.248,11.707-13.824,1.09-.506,1.985-.131,3.187,1.07s1.533,7.65,10.917,7.548c8.308-.088,14.526-2.485,16.413-4.891s.544-2.539.544-2.539a31.055,31.055,0,0,0,2.707,8.2c1.891,3.437,5.05,11.275,5.526,15,.263,2.063,1.023,7.157.209,9.348s-2.741,4.848-3.514,10.519c-1.546,11.339-.118,10.377-.635,11.751s-9.621,8.247-15.981,6.529-19.073-5.5-24.4-4.638c-2.664.429-7.045.861-10.782,2.427a15.152,15.152,0,0,1-11.039-.365c-2.346-1.209-2.8-3.531-3.588-4.817s-1.911-1.54-2.427-2.569a4.8,4.8,0,0,0-1.89-2.235Z" transform="translate(-685.051 -593.94)" fill="#f2f2f2" stroke="#e1e1e1" stroke-miterlimit="2.613" stroke-width="1.24" fill-rule="evenodd"/>
          <path id="path3187_27" d="M493.835,864.307s.135,13.142-.938,17.274a12.071,12.071,0,0,0,.807,7.653c1.728,3.737.284,1.84,1.556,8.018s-1.533,10.006,2.647,14.55,3.943,5.965,6.124,8.146,5.081,8.784,6.019,12.028c.763,2.64-2.154,4.517-3.4,4.814l-3.561.84-4.692.24,6.117,4.338,3.258,4.453a64.3,64.3,0,0,1,5.837,9.915c.908,2.181,4.881-.5,10.151-.868,4.756-.327,7.086-.908,9.449-.726,3.038.233,4.723,2.181,6.9.726s1.634-2.363,5.631-2.724,3.089-2.181,4-8.9,2.724-9.992,5.27-14.172,6.36-8.176,8.72-11.265,10.718-10.9,12.355-12.356,5.813-2.907,11.809-5.087,8.358-2,8.358-2a86.326,86.326,0,0,1-4.723-7.268c-.726-1.634-2.458-2.407-4.179-5.631-1.708-3.2-4.74-5.084-4.28-9.692.415-4.2-1.715-6.66-2.805-7.2s-2.988-4.21-4.439-6.026-3.555-.878-5.371,2.029-3.6,7.008-6.715,5.27a25.869,25.869,0,0,1-5.118-4.213c-3.295-5.388-2.488-9.5-5.658-12.8-1.654-1.718-4.216-2.923-5.665-3.95s-1.945-2.164-2.012-1.678l-.581,4.041-.631,2.444c-.719,2.782-10.752,1.431-13.027,2.964-1.816,1.222-2.137,3.815-5.584,5.081-4.01,1.475-9.324,1.455-14.776,1.276s-5.9.024-8.082.388-5.476-.449-8.76.071Z" transform="translate(-327.145 -562.48)" fill="#f2f2f2" stroke="#e1e1e1" stroke-miterlimit="2.613" stroke-width="1.24" fill-rule="evenodd"/>
          <path id="path3189_28" d="M933.285,1066.1c-4.638,2.559-7.575,5.675-11.181,7.521-4,2.049-8.97-1.745-6.86,3.913,1.087,2.913.564,12.771.564,12.771s3.943-1.877,6.573,1.313,4.881-.189,5.26,2.63.938,10.7,11.079,12.207,9.766,2.819,20.471-7.137,12.956-11.268,15.4-7.511.753,8.075,7.886,8.828,17.652-1.5,19.907-3,5.634-3.193,10.141,0,7.511,7.886,12.018,6.009,6.2,1.5,10.33.753,11.832-3.568,13.9-2.63,5.26-3,8.075-5.634,5.445-5.071,7.136-2.441,5.823,2.819,5.823,5.445,0,6.009,2.255,6.762,3,2.441,4.318,1.313,2.353-12.784,4.044-15.789,4.459.544,6.792-1.688c2.019-1.931,4.517-10.357,2.7-12.1-3.048-2.916-3.16-5.924-2.971-9.493s-1.678-2.68-5.435-6.623c-1.877-1.972-1.145-4.578,1.975-5.823,2.957-1.181,6.384-4.858,6.384-4.858a5.623,5.623,0,0,0,2.677-1.779c1.215-1.431,3.771,2.076,3.98-.3a48.218,48.218,0,0,1,1.387-8.173c.547-1.506,2.4-4.753,1.07-4.9-6.576-.736-6.293-4.74-10.4-5.84-.817-.219-4.956-7.93-11.214-6.617-5.59,1.171-5.908-2.431-9.29-2.805s-5.854-.773-6.8,1.668-.121,8.7.442,11.886a25.309,25.309,0,0,1-.6,9.159c-.374.938-4.4,3.1-6.762,5.3-3.8,3.538-8.308,2.174-10.938.861s-5.135-.388-5.324-2.454-2.944-9.284-3.659-9.375c-.29-.037-.9.483-1.441.75a1.712,1.712,0,0,1-1.31.169,13.082,13.082,0,0,1-2.144-1.242c-.591-.4-1.421-2.339-1.938-2.62l-1.266,1.1c-2.066,1.924-6.174,3.9-9.554,5.081-3.2,1.117-9.311-.807-9.311-.807s-11.157-4.054-16.683-4.176c-4.335-.095-11.39,1.823-11.39,1.823a24.118,24.118,0,0,1-5.871,1.644,18.335,18.335,0,0,1-4.358.2,8.019,8.019,0,0,1-5.165-2l-1.333-1.26-1.941,4.082c-.648,1.364-2.171,1.347-3.193,3.511-2.224,4.72-6.1,5.661-7.744,10.252-1.107,3.082.182,6.38-2.448,7.133s-3.814-1.985-6.444-1.047-2.674,3.318-7.633,6.053Z" transform="translate(-606.791 -676.556)" fill="#f2f2f2" stroke="#e1e1e1" stroke-miterlimit="2.613" stroke-width="1.24" fill-rule="evenodd"/>
          <path id="path3191_29" d="M533.667,1168.475a19.437,19.437,0,0,0-3.312,3.865c-1.4,2.15-1.58,3.467-2.724,5.56-1.212,2.214-1.5,5.8-1.5,7.572a70.551,70.551,0,0,0,.314,10.37,53.327,53.327,0,0,1-.192,13.6c-.692,3.619-1.533,6.792-2.174,9.111a21.645,21.645,0,0,0-.834,9.618c.277,2.319.787,3.919.959,5.6s.739,4.186.972,6.566c.479,4.908.327,4.628,4.274,7.585s5.712,8.173,10.84,9.749,9.334,2.927,12.737,3.957c3,.908,5.246,1.229,8.524,2.383,1.317.463,1.874.263,1.043,1.5s-3.133,4.112-4.021,4.5,2.707-.037,4.861.267,2.356,1.536,4.966,4.129c.952.945,2.495.513,3.939.5s3.413.391,3.71-.5c.591-1.776,5.04-6.745,3.967-10.242-1.428-4.655,4.956-8.389,6.93-9.044,2.177-.723,3.791-3.548,5.557,1.7,1.3,3.852,2.842,6.714,3.237,5.925a29.832,29.832,0,0,0,2.87-4.473c.79-1.874,1.046-1.351,1.181-3.427.294-4.453,5.807-1.057,7.383-4.409s5.324-7.886,3.747-11.832.986-6.9.986-10.846-.986-11.238.79-12.818.4-1.972-3.548-3.747-6.505-4.338-9.267-6.309-7.491-3.156-9.071-7.1-11.437-13.6-13.014-18.142-6.114-15.184-5.719-17.156-4.466-3.491-6.151-3.43a6.628,6.628,0,0,0-4.615,1.654A4.9,4.9,0,0,1,559,1162.27c-1.182.2-4.227-1.934-9.392-1.144-5.263.807-9.547,1.283-11.906,1.772l-2.9.6,1.06,2.458-2.191,2.5Z" transform="translate(-347.323 -768.59)" fill="#f2f2f2" stroke="#e1e1e1" stroke-miterlimit="2.613" stroke-width="1.24" fill-rule="evenodd"/>
          <path id="path3193_30" d="M697.344,999.146s-1.3.449-4.26,1.445-8.007,2.211-13.179,7.059-8.173,8.4-10.988,11.468a48.024,48.024,0,0,0-7.994,10.739c-2.262,4.419-3.481,6.806-4.081,9.921a68.424,68.424,0,0,0-1.165,8.072,5.982,5.982,0,0,1-.881,3.011c-.6.642-1.02.226-1.475.9.851.709,2.491.851,3.528,1.462a3.454,3.454,0,0,1,1.57,2.8c.25,2.62.716,4.709,2.653,9.51,3.892,9.631,6.532,14.212,13.426,20.893,3.447,3.339,1.077,5.7,5.249,7.717,6.367,3.079,11.883,8.122,14.361,8.659,4.956,1.077,7.758-1.293,16.808-6.249s15.515-8.19,21.764-12.713,11.3-5.047,10-16.251-1.209-8.483-3.021-8.564c-4.092-.186-6.566-.493-8.5-2-.969-.753-2-.79-3.372-1.388a23.521,23.521,0,0,1-3.079-1.749s-4.284-.331-2.464-7.211c.83-3.14,2.029-4.7,2.741-7.052a37.872,37.872,0,0,0,1.084-8.574c.2-4.358-.115-8.23-1.441-11.38-.955-2.265-2.751-4.01-3-5.675-.192-1.273,1.131-1.441-.382-3.95s-6.684-5.826-8.085-7.332c-2.8-3.018-1.641-5.341-1.641-5.341s-.348,3.514-2.5,3.943c-1.077.216-1.951.807-6.026-2.873-1-.9-1.965.095-2.745.051a10.244,10.244,0,0,0-2.907.655Z" transform="translate(-433.619 -661.474)" fill="#f2f2f2" stroke="#e1e1e1" stroke-miterlimit="2.613" stroke-width="1.24" fill-rule="evenodd"/>
          <path id="path3195_31" d="M1041.73,1292.408s5.891,9.064,5.891,12.092-.432,9.51-.432,12.538-2.832,11.37,1.955,10.712c4.666-.641,8.055-.874,10.647,1.934s6.64,6.593,9.874,4.861c4.186-2.238,4.409-7.758,4.206-12.487-.209-4.878,1.684-3.308,4.881-3.605,3.646-.338,2.829,2.268,3.261,5.725a6.448,6.448,0,0,0,2.312,4.382c1.442,1.1,1.722,3.153,3.052,2.961,5.894-.857,6.073,1.789,7.876,2.836a8.53,8.53,0,0,0,6.238.361c3.457-1.08,2.336-5.108,5.361-4.675,1.512.216,4.22,2.079,5.823,2.569a6.664,6.664,0,0,0,4.26-.544c1.3-.648.932-5.307,6.12-4.439s9.165,1.36,12.565.155c1.911-.679-.1-1.536,0-3.8a9.338,9.338,0,0,1,6.046-7.565,18.071,18.071,0,0,1,6.05-1.121,4.874,4.874,0,0,0,2.65-1.242c.648-.864,6.363-1.759,6.363-1.759a5.66,5.66,0,0,1-1.9-2.41,11.12,11.12,0,0,1-.527-5.725c.648-3.241,3.781-10.215,6.157-11.079s7.535-2.387,8.4-3.9c.432-.756,3.025-1.6,3.19-3.454a16.1,16.1,0,0,0-1.32-6.954c-2.454-6.789-2.052-9.246-.54-12.487a41.3,41.3,0,0,1,1.9-4.3c.932-1.641,2.208-3.072,1.829-4.112s-1.812-.516-3.531-.922a10.809,10.809,0,0,1-4.534-2.606c-1.62-1.728-2.522-2.019-3.109-3.724s-.854-4.831-1.205-4.088l-1.418,2.984c-.591,1.246-3.291-1.185-5.236-3.241s.152-4.3-1.12-6.293a6.335,6.335,0,0,0-3.643-2.849c-1.661-.53-2.684-3.389-4.152-2.673a19.436,19.436,0,0,0-6.056,4.294c-1.9,2.14-3.153,5.026-5.749,4.868a25.163,25.163,0,0,0-8.176,1.127c-2.333.631-5.388,1.765-8.382,1.553-2.593-.186-5.3-1.816-6.927-1.276-5.921,1.965-5.56-1.053-7.288,3.7s1.3,7.781-3.241,9.51-5.837.432-9.078,3.241-5.4.432-4.324,4.756,1.729,5.189,6.053,7.133,7.349.864,5.188,4.973-1.728,5.189-6.269,7.565-10.158,5.4-14.266,2.593-8.214-6.485-12.538-6.269-5.4-1.728-9.077.864-1.512,2.593-7.781,5.837-5.219,2.707-6.323,3.47Z" transform="translate(-690.91 -818.455)" fill="#f2f2f2" stroke="#e1e1e1" stroke-miterlimit="2.613" stroke-width="1.24" fill-rule="evenodd"/>
          <path id="path3197_32" d="M771.132,1255.6a43.8,43.8,0,0,1,4.483,2.3c1.023.729-.7,1.415-1.134,2.427-1.229,2.839-.2,7.3-.2,12.4s-3.075,6.89-1.124,9.911c.6.935.77,4.787-1.036,8.494s-4.979,5.53-3.707,5.877a16.166,16.166,0,0,1,8.082,6.181c1.138,1.573,1.549,3.318,2.232,4.537a9.186,9.186,0,0,0,1.131,1.874c.395.365.8.2,1.4,1.073,1.3,1.88,1.5,3.457,3.427,4.338,3.035,1.387,5.1,2.211,5.1,4.284-.013,3.153-.01,5.59,1.843,6.053a71.069,71.069,0,0,1,7.147,2.707c4.432,1.739,3.946,5.189,9.391,6.424,1.161.263,3.973.182,6.245.9a10.068,10.068,0,0,1,5.07,3.815c3.011,3.707,6.88,7.2,7.575,9.749s-.49,6.225,2.059,5.3c1.276-.463,5.317.472,6.606-.878,2.785-2.91,3.487-1.236,5.783-3.194,8.8-7.508,11.116-11.049,14.573-13.787a37.719,37.719,0,0,0,8.149-8.548c1.688-2.562,2.161-4.129,3.649-5.02,1.31-.783-1.192-.1-1.728-.581s-1.394-4.051-1.161-5.556c.462-3.011,2.133-13.226,1.364-17.554-.662-3.713-3.724-8.207-5.766-11.66-.682-1.151-1.948-.7-2.863-1.57-.938-.9-3.244-1.522-4.405-2.451-2.316-1.854-5.1-5.56-2.782-7.184s7.184-3.94,5.56-5.331-3.244-2.782-1.158-5.327,7.413-5.56,4.865-7.646-3.011-12.048-6.023-13.206-2.761-.554-9.712-1.482-11.353-3.139-12.531-7.555c-.459-1.715-.962-4.142-1.225-5.6-.2-1.111-1.742.1-3.2-.415a5.361,5.361,0,0,1-1.816-1.384c-.682-.672-1.583-1.88-2.525-1.84-4.22.179-3.339-.172-5.435,2.573-1.836,2.407-2.157,2.14-8.372,6.471-5.151,3.592-9.7,5.938-12.764,7.862-3.913,2.451-8.143,3.666-11.437,6.124a31.715,31.715,0,0,1-10.087,5.026c-2.437.6-3.19.024-3.538,1.073Z" transform="translate(-509.666 -813.232)" fill="#f2f2f2" stroke="#e1e1e1" stroke-miterlimit="2.613" stroke-width="1.24" fill-rule="evenodd"/>
          <path id="path3199_33" d="M1011.667,1244.952s2.373.338,2.883,1.188,2.2,4.068,2.2,5.594,1.016,5.425,2.2,6.613,2.036,2.036,1.188,3.052-3.7,3.43-4.915,4.578c-1.283,1.212-2.032,2.893-1.378,4.041.77,1.35,2.384,1.688,2.262,2.9-.074.736-4.446,3.906-5.466,4.243s-1.863.678-1.357,2.373,2.036,4.409,4.24,5.425,4.48,2.474,6.006,2.984c.763.253,2.144-.6,3.686-1.421s3.248-1.6,3.869-2.069c1.236-.938,2.515-1.114,4.692-3.328,2.046-2.076,3.194-3.312,5.283-3.46a29.912,29.912,0,0,1,5.52.4,9.747,9.747,0,0,1,7.217,1.982c3.507,2.528,7.511,5.513,8.223,5.152a9.348,9.348,0,0,0,5.256-.4c1.33-.473,8.412-4.041,9.473-4.682,1.151-.7,4.22-6.606,4.341-8.038.115-1.364-2.393-1.485-5.526-2.748-2.927-1.181-4.915-2.262-5.563-4.406-.55-1.813-1.627-4.713-.949-5.391s3.494-1.023,5.763-3.22c1.472-1.425,8.652-1.6,9.8-3.656a9.519,9.519,0,0,0,.581-5.263c-.206-1.661.975-3.6,1.452-4.642.408-.9.476-.986-1.391-2.171s-5.29-4.888-7.056-5.867a11.126,11.126,0,0,0-5.219-1.016c-1.289.037-5.455,2.275-8,2.954s-11.106,2.124-13.561,1.863c-2.255-.236-5.175.169-6.988-1.708-1.637-1.695-2.167-4.969-3.355-7.373-.824-1.671-4.26-1.934-6.951.074-3.072,2.3-6.391,6.147-9.611,8.689s-8.7,6.927-8.868,6.758Z" transform="translate(-669.323 -814.307)" fill="#f2f2f2" stroke="#e1e1e1" stroke-miterlimit="2.613" stroke-width="1.24" fill-rule="evenodd"/>
        </g>
      </g>
    </g>
    <g id="E-Vota" transform="translate(250 497)">
      <path id="Path_415" data-name="Path 415" d="M69.846,68.947a5.016,5.016,0,0,0-1.553,3.69V84.068h50.013v16.67H68.293V112.17a5.317,5.317,0,0,0,.413,2,5.853,5.853,0,0,0,.486.9,5.237,5.237,0,0,0,.654.788,5.16,5.16,0,0,0,.789.654,5.621,5.621,0,0,0,.9.486,5.372,5.372,0,0,0,.977.3,5.306,5.306,0,0,0,1.017.111h92.334a77.025,77.025,0,0,0,0-50.014H73.531a5.033,5.033,0,0,0-3.685,1.549Zm0,0" transform="translate(2.311 2.316)" fill="#6c63ff"/>
      <g id="Group_193" data-name="Group 193" transform="translate(18 17)" clip-path="url(#clip-path)">
        <path id="Path_416" data-name="Path 416" d="M70.566,136.355a16.035,16.035,0,0,1-6.488-1.319,16.75,16.75,0,0,1-8.862-8.862,16.031,16.031,0,0,1-1.307-6.488V69.671a16.052,16.052,0,0,1,1.307-6.492,16.725,16.725,0,0,1,8.862-8.858,16.1,16.1,0,0,1,6.488-1.312h89.446a76.8,76.8,0,0,0-5.675-7.685,76.681,76.681,0,0,0-49.226-26.79,76.736,76.736,0,1,0-9.536,152.877,76.733,76.733,0,0,0,36.682-9.319,76.677,76.677,0,0,0,27.756-25.737Zm0,0" transform="translate(-17.961 -16.957)" fill="#6c63ff"/>
      </g>
      <g id="Group_196" data-name="Group 196" transform="translate(196.809 78.473)">
        <g id="Group_195" data-name="Group 195" transform="translate(0 0)">
          <g id="Group_194" data-name="Group 194" transform="translate(0 0)">
            <path id="Path_418" data-name="Path 418" d="M29.307-38.063H40.518L26.676,1.749H10.807L-.8-38.063H11.085L19.321-8.351Zm0,0" transform="translate(0.797 38.063)" fill="#6c63ff"/>
          </g>
        </g>
      </g>
      <g id="Group_199" data-name="Group 199" transform="translate(247.72 77.917)">
        <g id="Group_198" data-name="Group 198" transform="translate(0 0)">
          <g id="Group_197" data-name="Group 197">
            <path id="Path_419" data-name="Path 419" d="M22.143,2.329A23.861,23.861,0,0,1,11.03.041,16.416,16.416,0,0,1,3.921-6.741,21.611,21.611,0,0,1,1.453-17.4a22.335,22.335,0,0,1,2.68-11.162,18.858,18.858,0,0,1,7.518-7.4,23.179,23.179,0,0,1,11.277-2.631,20.691,20.691,0,0,1,10.28,2.468,17.4,17.4,0,0,1,6.848,6.864,21.047,21.047,0,0,1,2.435,10.345,23.086,23.086,0,0,1-2.55,11.048A18.664,18.664,0,0,1,32.783-.4,21.056,21.056,0,0,1,22.143,2.329Zm-.278-9.806A8.38,8.38,0,0,0,28.7-10.533a12.439,12.439,0,0,0,2.517-8.155,10.826,10.826,0,0,0-2.386-7.354,7.978,7.978,0,0,0-6.357-2.746,9.092,9.092,0,0,0-5.1,1.438,9.456,9.456,0,0,0-3.4,3.922,13.1,13.1,0,0,0-1.193,5.736q0,4.842,2.4,7.534A8.533,8.533,0,0,0,21.866-7.477Zm0,0" transform="translate(-1.453 38.594)" fill="#6c63ff"/>
          </g>
        </g>
      </g>
      <g id="Group_202" data-name="Group 202" transform="translate(299.577 78.473)">
        <g id="Group_201" data-name="Group 201" transform="translate(0 0)">
          <g id="Group_200" data-name="Group 200" transform="translate(0 0)">
            <path id="Path_420" data-name="Path 420" d="M36.092-38.063l-1.618,9.757H22.805V1.749H11.594V-28.306H-.859v-9.757Zm0,0" transform="translate(0.859 38.063)" fill="#6c63ff"/>
          </g>
        </g>
      </g>
      <g id="Group_205" data-name="Group 205" transform="translate(342.75 78.473)">
        <g id="Group_204" data-name="Group 204" transform="translate(0 0)">
          <g id="Group_203" data-name="Group 203" transform="translate(0 0)">
            <path id="Path_421" data-name="Path 421" d="M-2.094,1.749,15.459-38.063h9.316L41.706,1.749H30.38L27.569-5.376H12.157L9.232,1.749ZM15.965-14.627h7.91L20-24.383Zm0,0" transform="translate(2.094 38.063)" fill="#6c63ff"/>
          </g>
        </g>
      </g>
    </g>
  </g>
</svg>
