<svg xmlns="http://www.w3.org/2000/svg" xmlns:xlink="http://www.w3.org/1999/xlink" width="300" zoomAndPan="magnify" viewBox="0 0 224.87999 225" height="300" preserveAspectRatio="xMidYMid meet" version="1.0"><defs><clipPath id="ee7ccef09c"><path d="M 2 3 L 203 3 L 203 221.5 L 2 221.5 Z M 2 3 " clip-rule="nonzero"/></clipPath></defs><path fill="#6c63ff" d="M 78.085938 79.214844 C 77.371094 79.894531 76.824219 80.691406 76.441406 81.601562 C 76.058594 82.511719 75.871094 83.457031 75.882812 84.445312 L 75.882812 100.660156 L 146.820312 100.660156 L 146.820312 124.304688 L 75.882812 124.304688 L 75.882812 140.519531 C 75.890625 141.003906 75.941406 141.488281 76.039062 141.964844 C 76.136719 142.441406 76.28125 142.902344 76.46875 143.351562 C 76.660156 143.800781 76.890625 144.226562 77.160156 144.628906 C 77.433594 145.03125 77.738281 145.40625 78.082031 145.75 C 78.425781 146.09375 78.800781 146.402344 79.207031 146.675781 C 79.609375 146.945312 80.035156 147.175781 80.484375 147.363281 C 80.933594 147.550781 81.394531 147.695312 81.871094 147.792969 C 82.347656 147.894531 82.828125 147.945312 83.316406 147.949219 L 214.273438 147.949219 C 216.230469 142.242188 217.707031 136.414062 218.699219 130.460938 C 219.691406 124.507812 220.1875 118.515625 220.1875 112.480469 C 220.1875 106.449219 219.691406 100.453125 218.699219 94.503906 C 217.707031 88.550781 216.230469 82.722656 214.273438 77.011719 L 83.316406 77.011719 C 82.328125 77.003906 81.382812 77.1875 80.472656 77.570312 C 79.5625 77.953125 78.765625 78.5 78.085938 79.214844 Z M 78.085938 79.214844 " fill-opacity="1" fill-rule="nonzero"/><g clip-path="url(#ee7ccef09c)"><path fill="#6c63ff" d="M 75.882812 171.59375 C 72.6875 171.609375 69.617188 170.984375 66.679688 169.722656 C 65.277344 169.125 63.945312 168.402344 62.683594 167.550781 C 61.421875 166.699219 60.253906 165.734375 59.175781 164.660156 C 58.097656 163.582031 57.132812 162.414062 56.28125 161.148438 C 55.429688 159.886719 54.707031 158.554688 54.113281 157.152344 C 52.855469 154.214844 52.234375 151.148438 52.257812 147.949219 L 52.257812 77.011719 C 52.234375 73.816406 52.855469 70.75 54.113281 67.808594 C 54.707031 66.410156 55.429688 65.078125 56.28125 63.8125 C 57.132812 62.550781 58.097656 61.382812 59.175781 60.304688 C 60.253906 59.226562 61.421875 58.265625 62.683594 57.414062 C 63.945312 56.5625 65.277344 55.835938 66.679688 55.242188 C 69.621094 53.984375 72.6875 53.367188 75.882812 53.386719 L 202.746094 53.386719 C 200.289062 49.582031 197.609375 45.949219 194.699219 42.480469 C 191.789062 39.015625 188.671875 35.742188 185.355469 32.664062 C 182.035156 29.585938 178.539062 26.722656 174.863281 24.082031 C 171.1875 21.441406 167.359375 19.039062 163.386719 16.875 C 159.410156 14.710938 155.3125 12.804688 151.101562 11.152344 C 146.886719 9.5 142.585938 8.113281 138.199219 7 C 133.8125 5.882812 129.371094 5.046875 124.878906 4.484375 C 120.386719 3.925781 115.878906 3.644531 111.351562 3.648438 C 51.246094 3.648438 2.519531 52.375 2.519531 112.480469 C 2.519531 172.589844 51.246094 221.316406 111.351562 221.316406 C 115.878906 221.320312 120.386719 221.039062 124.878906 220.480469 C 129.371094 219.917969 133.808594 219.082031 138.195312 217.96875 C 142.582031 216.851562 146.882812 215.46875 151.097656 213.816406 C 155.3125 212.164062 159.40625 210.257812 163.382812 208.09375 C 167.359375 205.933594 171.183594 203.53125 174.859375 200.890625 C 178.535156 198.25 182.035156 195.390625 185.351562 192.3125 C 188.671875 189.234375 191.785156 185.960938 194.695312 182.496094 C 197.605469 179.027344 200.289062 175.394531 202.746094 171.59375 Z M 75.882812 171.59375 " fill-opacity="1" fill-rule="nonzero"/></g></svg>